<svg width="201" height="150" viewBox="0 0 201 150" fill="none" xmlns="http://www.w3.org/2000/svg">
<path d="M200.125 131.448H0.125V131.548H200.125V131.448Z" fill="#E0E0E0"/>
<path d="M151.189 135.684H137.429V135.784H151.189V135.684Z" fill="#E0E0E0"/>
<path d="M44.5411 135.732H36.7971V135.832H44.5411V135.732Z" fill="#E0E0E0"/>
<path d="M100.525 135.5H84.8289V135.6H100.525V135.5Z" fill="#E0E0E0"/>
<path d="M84.4291 134.076H77.4131V134.176H84.4291V134.076Z" fill="#E0E0E0"/>
<path d="M169.949 134.128H148.753V134.228H169.949V134.128Z" fill="#E0E0E0"/>
<path d="M94.9249 113.608H17.6889C17.0839 113.607 16.504 113.366 16.0765 112.938C15.649 112.509 15.4089 111.929 15.4089 111.324V2.75198C15.4142 2.15039 15.6566 1.57517 16.0835 1.15126C16.5104 0.727359 17.0873 0.489007 17.6889 0.487976H94.9249C95.5307 0.487976 96.1116 0.728611 96.54 1.15694C96.9683 1.58528 97.2089 2.16622 97.2089 2.77198V111.324C97.2089 111.93 96.9683 112.511 96.54 112.939C96.1116 113.367 95.5307 113.608 94.9249 113.608ZM17.6889 0.567976C17.1104 0.569036 16.5559 0.799602 16.1472 1.20907C15.7385 1.61853 15.5089 2.17344 15.5089 2.75198V111.324C15.5089 111.903 15.7385 112.457 16.1472 112.867C16.5559 113.276 17.1104 113.507 17.6889 113.508H94.9249C95.5038 113.507 96.0587 113.276 96.4681 112.867C96.8774 112.458 97.1079 111.903 97.1089 111.324V2.75198C97.1079 2.17307 96.8774 1.61817 96.4681 1.20882C96.0587 0.799472 95.5038 0.569034 94.9249 0.567976H17.6889Z" fill="#E0E0E0"/>
<path d="M181.449 113.608H104.209C103.604 113.607 103.023 113.366 102.595 112.938C102.167 112.51 101.926 111.929 101.925 111.324V2.75198C101.931 2.15002 102.175 1.57481 102.602 1.15101C103.03 0.72722 103.607 0.488995 104.209 0.487976H181.449C182.05 0.490058 182.626 0.728876 183.052 1.15267C183.478 1.57646 183.72 2.15108 183.725 2.75198V111.324C183.725 111.928 183.486 112.508 183.059 112.936C182.632 113.364 182.053 113.606 181.449 113.608ZM104.209 0.567976C103.63 0.569034 103.075 0.799472 102.666 1.20882C102.257 1.61817 102.026 2.17307 102.025 2.75198V111.324C102.026 111.903 102.257 112.458 102.666 112.867C103.075 113.276 103.63 113.507 104.209 113.508H181.449C182.028 113.507 182.583 113.276 182.992 112.867C183.402 112.458 183.632 111.903 183.633 111.324V2.75198C183.632 2.17307 183.402 1.61817 182.992 1.20882C182.583 0.799472 182.028 0.569034 181.449 0.567976H104.209Z" fill="#E0E0E0"/>
<path d="M175.849 81.38C170.929 73.888 175.421 65.836 174.673 57.5C173.925 49.164 166.005 47.348 167.505 40.3C169.241 32.108 164.613 24.248 159.369 24.248C154.125 24.248 149.501 32.088 151.237 40.288C152.737 47.348 144.837 49.168 144.069 57.488C143.301 65.808 147.813 73.888 142.889 81.368C137.965 88.848 139.261 98.78 142.033 103.704C142.77 105.011 143.659 106.226 144.681 107.324C146.56 109.341 148.834 110.949 151.361 112.049C153.888 113.149 156.615 113.716 159.371 113.716C162.127 113.716 164.854 113.149 167.381 112.049C169.909 110.949 172.182 109.341 174.061 107.324C175.08 106.224 175.968 105.009 176.705 103.704C179.481 98.792 180.773 88.888 175.849 81.38Z" fill="#E0E0E0"/>
<path d="M159.369 87.064C159.696 87.064 160.019 87.1283 160.321 87.2534C160.623 87.3784 160.897 87.5617 161.128 87.7927C161.359 88.0237 161.543 88.298 161.668 88.5999C161.793 88.9017 161.857 89.2252 161.857 89.552V131.448H156.881V89.552C156.881 89.2252 156.945 88.9017 157.07 88.5999C157.196 88.298 157.379 88.0237 157.61 87.7927C157.841 87.5617 158.115 87.3784 158.417 87.2534C158.719 87.1283 159.042 87.064 159.369 87.064Z" fill="#F0F0F0"/>
<path d="M128.089 131.448H121.325V89.556C121.327 88.6581 121.685 87.7975 122.32 87.1626C122.955 86.5277 123.815 86.1701 124.713 86.168C125.611 86.1701 126.471 86.5277 127.106 87.1626C127.741 87.7975 128.099 88.6581 128.101 89.556L128.089 131.448Z" fill="#E0E0E0"/>
<path d="M124.701 120.148C136.226 120.148 145.569 110.805 145.569 99.28C145.569 87.7549 136.226 78.412 124.701 78.412C113.176 78.412 103.833 87.7549 103.833 99.28C103.833 110.805 113.176 120.148 124.701 120.148Z" fill="#F0F0F0"/>
<path d="M149.222 93.0181C150.317 88.61 147.632 84.149 143.224 83.054C138.815 81.9591 134.354 84.6448 133.259 89.0529C132.164 93.4609 134.85 97.9219 139.258 99.0169C143.666 100.112 148.127 97.4261 149.222 93.0181Z" fill="#F0F0F0"/>
<path d="M112.626 86.9477C113.058 84.2942 111.257 81.7927 108.603 81.3605C105.95 80.9284 103.448 82.7292 103.016 85.3827C102.584 88.0363 104.385 90.5378 107.038 90.9699C109.692 91.4021 112.193 89.6013 112.626 86.9477Z" fill="#F0F0F0"/>
<path d="M113.117 87.064C115.004 87.064 116.533 85.5346 116.533 83.648C116.533 81.7614 115.004 80.232 113.117 80.232C111.23 80.232 109.701 81.7614 109.701 83.648C109.701 85.5346 111.23 87.064 113.117 87.064Z" fill="#F0F0F0"/>
<path d="M81.725 106.444C78.4801 106.927 75.379 108.111 72.637 109.912C72.613 106.744 72.033 103.74 70.545 101.312C68.281 103.516 66.445 106.372 64.945 109.444C64.397 103.688 62.881 98.088 59.525 94.54C54.497 97.704 51.905 102.976 50.673 108.56C48.6377 104.795 45.6835 101.605 42.085 99.288C39.009 102.528 38.025 107.008 38.109 111.6C34.613 107.528 30.733 104.352 26.949 103.98C26.017 110.416 28.001 116.488 30.525 121.288C32.1637 124.368 34.6118 126.942 37.6054 128.733C40.5989 130.524 44.0246 131.464 47.513 131.452H63.949C70.953 131.452 77.521 127.716 80.805 121.528C82.8811 117.608 83.8731 112.564 81.725 106.444Z" fill="#E0E0E0"/>
<path d="M77.0292 23.344C79.0572 17.396 77.4292 13.16 72.4812 13.16C69.3692 13.16 65.5092 14.828 61.7492 17.54C61.3252 15.992 60.1292 15.068 58.2052 15.068C54.8172 15.068 50.1492 17.932 46.4892 21.972C45.4587 20.993 44.0945 20.4424 42.6732 20.432C39.4292 20.248 35.5052 21.896 32.0932 24.572C31.9222 24.3327 31.6965 24.1378 31.4349 24.0035C31.1732 23.8692 30.8833 23.7994 30.5892 23.8C28.7212 23.696 26.1892 25.36 24.9372 27.512C24.8612 27.644 24.7932 27.776 24.7212 27.912H78.0132C78.1732 26.032 77.8412 24.464 77.0292 23.344Z" fill="#F0F0F0"/>
<path d="M77.193 59.46C78.185 56.556 77.397 54.488 74.973 54.488C73.449 54.488 71.565 55.288 69.729 56.628C69.6301 56.2547 69.4014 55.9289 69.084 55.709C68.7666 55.489 68.3812 55.3894 67.997 55.428C66.345 55.428 64.065 56.828 62.273 58.804C61.7707 58.3242 61.1036 58.0551 60.409 58.052C58.809 57.96 56.909 58.764 55.241 60.072C55.1601 59.9563 55.0532 59.8613 54.9288 59.7946C54.8044 59.7279 54.6661 59.6914 54.525 59.688C53.613 59.636 52.377 60.448 51.765 61.5L51.657 61.692H77.689C77.7978 60.9125 77.6217 60.12 77.193 59.46Z" fill="#F0F0F0"/>
<path d="M137.233 37.484C137.028 37.4551 136.82 37.4404 136.613 37.44C136.805 34.54 135.697 32.684 133.325 32.684C131.617 32.684 129.517 33.652 127.381 35.288C127.993 29.656 126.033 25.996 121.593 25.996C118.017 25.996 113.485 28.396 109.009 32.26C108.609 30.052 107.297 28.724 105.081 28.724C101.189 28.724 95.657 32.82 91.221 38.596C90.7155 37.9299 90.0672 37.3856 89.3238 37.0028C88.5804 36.62 87.7608 36.4086 86.925 36.384C83.221 36.124 78.617 38.476 74.525 42.308C74.3761 41.9848 74.1391 41.7102 73.8413 41.5157C73.5434 41.3211 73.1967 41.2144 72.841 41.208C70.813 41.064 68.041 43.18 66.397 46.008H140.493C142.233 41.72 140.849 37.968 137.233 37.484Z" fill="#F0F0F0"/>
<path d="M100.125 149.512C142.958 149.512 177.681 147.485 177.681 144.984C177.681 142.483 142.958 140.456 100.125 140.456C57.2919 140.456 22.5688 142.483 22.5688 144.984C22.5688 147.485 57.2919 149.512 100.125 149.512Z" fill="#F5F5F5"/>
<path d="M19.6689 38.712L110.857 51.84L123.093 64.188L19.6689 38.712Z" fill="#FA1239"/>
<path opacity="0.6" d="M19.6689 38.712L110.857 51.84L123.093 64.188L19.6689 38.712Z" fill="white"/>
<path d="M19.6689 38.712L110.857 51.84L106.625 69.696L19.6689 38.712Z" fill="#FA1239"/>
<path opacity="0.2" d="M19.6689 38.712L110.857 51.84L106.625 69.696L19.6689 38.712Z" fill="black"/>
<path d="M104.753 18.04L110.045 42.84C110.183 43.4876 110.058 44.1633 109.698 44.719C109.338 45.2747 108.772 45.6649 108.125 45.804L60.8931 55.884C60.2456 56.0206 59.5704 55.8953 59.015 55.5355C58.4596 55.1757 58.0692 54.6107 57.9291 53.964L52.6331 29.164C52.4966 28.5159 52.6225 27.8402 52.983 27.2847C53.3436 26.7292 53.9096 26.3392 54.5571 26.2L101.789 16.12C102.437 15.9835 103.113 16.1094 103.668 16.47C104.224 16.8305 104.614 17.3965 104.753 18.044V18.04Z" fill="#FA1239"/>
<path opacity="0.4" d="M104.753 18.04L110.045 42.84C110.183 43.4876 110.058 44.1633 109.698 44.719C109.338 45.2747 108.772 45.6649 108.125 45.804L60.8931 55.884C60.2456 56.0206 59.5704 55.8953 59.015 55.5355C58.4596 55.1757 58.0692 54.6107 57.9291 53.964L52.6331 29.164C52.4966 28.5159 52.6225 27.8402 52.983 27.2847C53.3436 26.7292 53.9096 26.3392 54.5571 26.2L101.789 16.12C102.437 15.9835 103.113 16.1094 103.668 16.47C104.224 16.8305 104.614 17.3965 104.753 18.044V18.04Z" fill="black"/>
<path d="M103.589 16.416L87.809 35.788C86.3455 37.584 84.3127 38.8267 82.047 39.3104C79.7813 39.7941 77.4183 39.4898 75.349 38.448L53.033 27.208C53.394 26.6893 53.9389 26.3275 54.557 26.196L101.789 16.116C102.405 15.9848 103.048 16.092 103.589 16.416Z" fill="#FA1239"/>
<path d="M19.6689 38.712L94.8809 56.588L106.625 69.696L19.6689 38.712Z" fill="#FA1239"/>
<path opacity="0.6" d="M19.6689 38.712L94.8809 56.588L106.625 69.696L19.6689 38.712Z" fill="white"/>
<path d="M47.1045 55.9421L46.9023 56.2872L55.2722 61.1899L55.4743 60.8447L47.1045 55.9421Z" fill="#FA1239"/>
<path d="M59.1695 63.0062L58.9673 63.3513L61.977 65.1143L62.1791 64.7691L59.1695 63.0062Z" fill="#FA1239"/>
<path d="M19.6689 38.712L94.8809 56.588L80.2609 74.208L19.6689 38.712Z" fill="#FA1239"/>
<path d="M120.269 80.592C120.168 80.5922 120.067 80.5732 119.973 80.536L107.725 75.688C107.529 75.6091 107.372 75.4558 107.289 75.2617C107.205 75.0676 107.202 74.8484 107.28 74.6519C107.358 74.4555 107.51 74.2977 107.703 74.213C107.897 74.1283 108.116 74.1237 108.313 74.2L120.565 79.048C120.738 79.1165 120.882 79.2434 120.972 79.4067C121.062 79.57 121.092 79.7596 121.057 79.9426C121.022 80.1257 120.924 80.2907 120.78 80.4093C120.636 80.5278 120.455 80.5924 120.269 80.592Z" fill="#FA1239"/>
<path opacity="0.3" d="M120.269 80.592C120.168 80.5922 120.067 80.5732 119.973 80.536L107.725 75.688C107.529 75.6091 107.372 75.4558 107.289 75.2617C107.205 75.0676 107.202 74.8484 107.28 74.6519C107.358 74.4555 107.51 74.2977 107.703 74.213C107.897 74.1283 108.116 74.1237 108.313 74.2L120.565 79.048C120.738 79.1165 120.882 79.2434 120.972 79.4067C121.062 79.57 121.092 79.7596 121.057 79.9426C121.022 80.1257 120.924 80.2907 120.78 80.4093C120.636 80.5278 120.455 80.5924 120.269 80.592Z" fill="black"/>
<path d="M119.545 73.568C119.445 73.5674 119.345 73.547 119.253 73.508L112.673 70.888C112.575 70.8499 112.485 70.7927 112.409 70.7197C112.332 70.6467 112.271 70.5593 112.229 70.4627C112.187 70.366 112.164 70.2619 112.162 70.1565C112.16 70.051 112.179 69.9462 112.218 69.848C112.257 69.7499 112.315 69.6604 112.388 69.5847C112.462 69.5091 112.549 69.4486 112.646 69.407C112.743 69.3654 112.847 69.3433 112.953 69.3421C113.058 69.3409 113.163 69.3606 113.261 69.4L119.841 72.008C120.038 72.0856 120.197 72.2383 120.281 72.4325C120.366 72.6267 120.37 72.8466 120.293 73.044C120.237 73.1972 120.135 73.3295 120.001 73.4232C119.867 73.5169 119.708 73.5674 119.545 73.568Z" fill="#FA1239"/>
<path opacity="0.5" d="M119.545 73.568C119.445 73.5674 119.345 73.547 119.253 73.508L112.673 70.888C112.575 70.8499 112.485 70.7927 112.409 70.7197C112.332 70.6467 112.271 70.5593 112.229 70.4627C112.187 70.366 112.164 70.2619 112.162 70.1565C112.16 70.051 112.179 69.9462 112.218 69.848C112.257 69.7499 112.315 69.6604 112.388 69.5847C112.462 69.5091 112.549 69.4486 112.646 69.407C112.743 69.3654 112.847 69.3433 112.953 69.3421C113.058 69.3409 113.163 69.3606 113.261 69.4L119.841 72.008C120.038 72.0856 120.197 72.2383 120.281 72.4325C120.366 72.6267 120.37 72.8466 120.293 73.044C120.237 73.1972 120.135 73.3295 120.001 73.4232C119.867 73.5169 119.708 73.5674 119.545 73.568Z" fill="white"/>
<path d="M105.789 80.488C105.689 80.4868 105.59 80.4679 105.497 80.432L93.549 75.688C93.4506 75.6498 93.3608 75.5926 93.2846 75.5197C93.2084 75.4467 93.1474 75.3593 93.1052 75.2627C93.0629 75.166 93.0401 75.0619 93.0382 74.9564C93.0363 74.851 93.0553 74.7461 93.0941 74.648C93.1328 74.5499 93.1906 74.4604 93.2641 74.3847C93.3376 74.309 93.4254 74.2486 93.5223 74.207C93.6192 74.1653 93.7235 74.1433 93.829 74.1421C93.9345 74.1409 94.0391 74.1606 94.137 74.2L106.085 78.928C106.258 78.9965 106.402 79.1233 106.492 79.2867C106.582 79.45 106.612 79.6396 106.577 79.8226C106.542 80.0056 106.444 80.1707 106.3 80.2892C106.156 80.4078 105.975 80.4724 105.789 80.472V80.488Z" fill="#FA1239"/>
<path opacity="0.3" d="M105.789 80.488C105.689 80.4868 105.59 80.4679 105.497 80.432L93.549 75.688C93.4506 75.6498 93.3608 75.5926 93.2846 75.5197C93.2084 75.4467 93.1474 75.3593 93.1052 75.2627C93.0629 75.166 93.0401 75.0619 93.0382 74.9564C93.0363 74.851 93.0553 74.7461 93.0941 74.648C93.1328 74.5499 93.1906 74.4604 93.2641 74.3847C93.3376 74.309 93.4254 74.2486 93.5223 74.207C93.6192 74.1653 93.7235 74.1433 93.829 74.1421C93.9345 74.1409 94.0391 74.1606 94.137 74.2L106.085 78.928C106.258 78.9965 106.402 79.1233 106.492 79.2867C106.582 79.45 106.612 79.6396 106.577 79.8226C106.542 80.0056 106.444 80.1707 106.3 80.2892C106.156 80.4078 105.975 80.4724 105.789 80.472V80.488Z" fill="black"/>
<path d="M149.045 44.416C150.105 46.484 151.077 48.556 152.001 50.676C152.925 52.796 153.785 54.944 154.537 57.196L154.809 58.048C154.857 58.2 154.925 58.448 154.965 58.624C155.005 58.8 155.041 59 155.061 59.168C155.153 59.8133 155.199 60.4642 155.201 61.116C155.207 62.3181 155.151 63.5197 155.033 64.716C154.81 67.0318 154.446 69.332 153.945 71.604L151.749 71.36C151.721 69.108 151.701 66.832 151.621 64.612C151.585 63.508 151.521 62.4 151.409 61.36C151.358 60.8716 151.278 60.3867 151.169 59.908C151.149 59.796 151.117 59.712 151.093 59.62C151.069 59.528 151.045 59.496 151.005 59.376L150.701 58.62C149.865 56.596 148.925 54.556 147.965 52.524L145.061 46.428L149.045 44.416Z" fill="#E4897B"/>
<path d="M151.781 70.656L150.757 72.572L154.029 73.484C154.029 73.484 154.653 71.944 153.909 70.728L151.781 70.656Z" fill="#E4897B"/>
<path d="M149.505 75.332L152.513 75.572L154.029 73.484L150.757 72.572L149.505 75.332Z" fill="#E4897B"/>
<path d="M135.273 30.592C135.229 30.828 135.065 30.992 134.913 30.96C134.761 30.928 134.677 30.716 134.725 30.484C134.773 30.252 134.933 30.084 135.085 30.116C135.237 30.148 135.325 30.36 135.273 30.592Z" fill="#263238"/>
<path d="M135.089 30.992C134.667 31.6464 134.156 32.2399 133.573 32.756C133.709 32.9009 133.875 33.0146 134.06 33.0891C134.244 33.1637 134.442 33.1974 134.641 33.188L135.089 30.992Z" fill="#DE5753"/>
<path d="M136.385 29.476C136.347 29.475 136.311 29.4592 136.285 29.432C136.17 29.3005 136.026 29.198 135.864 29.1327C135.702 29.0674 135.527 29.0411 135.353 29.056C135.32 29.0563 135.287 29.0449 135.262 29.0237C135.236 29.0025 135.219 28.973 135.214 28.9403C135.208 28.9077 135.214 28.8741 135.231 28.8454C135.247 28.8168 135.274 28.795 135.305 28.784C135.527 28.7558 135.753 28.783 135.963 28.8633C136.172 28.9436 136.358 29.0743 136.505 29.244C136.53 29.2702 136.545 29.3053 136.545 29.342C136.545 29.3786 136.53 29.4138 136.505 29.44C136.489 29.4546 136.47 29.4655 136.449 29.4717C136.428 29.478 136.406 29.4794 136.385 29.476Z" fill="#263238"/>
<path d="M141.889 33.86C141.469 36.012 141.049 39.948 142.553 41.384C142.553 41.384 141.965 43.564 137.969 43.564C133.569 43.564 135.873 41.384 135.873 41.384C138.273 40.812 138.205 39.032 137.789 37.364L141.889 33.86Z" fill="#E4897B"/>
<path d="M143.157 42.74C143.473 41.688 143.821 40.484 143.101 40.104C142.301 39.704 137.953 39.264 136.453 40.044C134.953 40.824 135.381 42.964 135.381 42.964L143.157 42.74Z" fill="#263238"/>
<path d="M152.381 142.488C152.257 142.504 152.131 142.496 152.01 142.463C151.889 142.43 151.776 142.373 151.677 142.296C151.642 142.248 151.624 142.19 151.624 142.13C151.624 142.07 151.642 142.012 151.677 141.964C151.7 141.923 151.731 141.886 151.769 141.858C151.807 141.83 151.851 141.81 151.897 141.8C152.329 141.704 153.137 142.256 153.173 142.28C153.183 142.289 153.191 142.3 153.196 142.312C153.201 142.325 153.203 142.339 153.201 142.352C153.199 142.365 153.193 142.377 153.183 142.386C153.174 142.395 153.162 142.402 153.149 142.404C152.897 142.458 152.639 142.487 152.381 142.488ZM152.013 141.928H151.929C151.902 141.934 151.876 141.945 151.854 141.962C151.832 141.978 151.814 142 151.801 142.024C151.737 142.136 151.777 142.184 151.801 142.2C151.925 142.368 152.525 142.368 152.965 142.296C152.678 142.107 152.353 141.984 152.013 141.936V141.928Z" fill="#FA1239"/>
<path d="M153.133 142.416H153.101C152.797 142.248 152.209 141.616 152.269 141.28C152.279 141.228 152.307 141.181 152.348 141.148C152.389 141.114 152.44 141.096 152.493 141.096C152.546 141.09 152.599 141.095 152.65 141.11C152.701 141.125 152.748 141.15 152.789 141.184C153.129 141.464 153.189 142.312 153.189 142.348C153.191 142.361 153.188 142.373 153.183 142.385C153.177 142.396 153.168 142.406 153.157 142.412C153.149 142.415 153.141 142.416 153.133 142.416ZM152.541 141.216H152.525C152.433 141.216 152.425 141.272 152.421 141.288C152.385 141.484 152.761 141.968 153.061 142.196C153.041 141.862 152.921 141.541 152.717 141.276C152.69 141.255 152.659 141.24 152.626 141.231C152.593 141.222 152.559 141.219 152.525 141.224L152.541 141.216Z" fill="#FA1239"/>
<path d="M134.737 142.488C134.361 142.488 133.997 142.436 133.873 142.268C133.842 142.223 133.825 142.17 133.825 142.116C133.825 142.062 133.842 142.008 133.873 141.964C133.897 141.923 133.929 141.887 133.968 141.859C134.007 141.831 134.05 141.811 134.097 141.8C134.581 141.668 135.613 142.252 135.657 142.276C135.669 142.284 135.678 142.294 135.684 142.307C135.689 142.32 135.691 142.334 135.689 142.348C135.687 142.362 135.68 142.375 135.67 142.385C135.66 142.395 135.647 142.402 135.633 142.404C135.337 142.46 135.037 142.488 134.737 142.488ZM134.269 141.92C134.225 141.914 134.181 141.914 134.137 141.92C134.109 141.926 134.082 141.937 134.059 141.953C134.035 141.97 134.016 141.991 134.001 142.016C133.949 142.104 133.969 142.144 134.001 142.168C134.133 142.352 134.877 142.364 135.429 142.288C135.069 142.094 134.675 141.972 134.269 141.928V141.92Z" fill="#FA1239"/>
<path d="M135.625 142.416H135.597C135.241 142.26 134.541 141.616 134.593 141.292C134.593 141.212 134.661 141.116 134.853 141.096C134.924 141.085 134.997 141.09 135.067 141.111C135.136 141.132 135.199 141.168 135.253 141.216C135.629 141.52 135.705 142.312 135.709 142.348C135.711 142.36 135.709 142.373 135.704 142.384C135.699 142.395 135.691 142.405 135.681 142.412C135.673 142.417 135.663 142.419 135.654 142.42C135.644 142.421 135.634 142.419 135.625 142.416ZM134.909 141.216H134.865C134.741 141.216 134.733 141.28 134.729 141.296C134.697 141.496 135.177 141.996 135.529 142.212C135.495 141.876 135.354 141.56 135.129 141.308C135.072 141.259 135 141.229 134.925 141.224L134.909 141.216Z" fill="#FA1239"/>
<path d="M138.857 142.344H135.917L135.625 135.54H138.565L138.857 142.344Z" fill="#E4897B"/>
<path d="M156.501 142.344H153.561L152.085 135.54H155.021L156.501 142.344Z" fill="#E4897B"/>
<path d="M153.353 142.004H156.653C156.712 142.004 156.769 142.025 156.815 142.062C156.86 142.099 156.892 142.15 156.905 142.208L157.485 144.82C157.498 144.884 157.497 144.949 157.481 145.012C157.465 145.075 157.436 145.134 157.394 145.184C157.353 145.234 157.3 145.274 157.241 145.301C157.182 145.328 157.118 145.341 157.053 145.34C155.901 145.32 155.341 145.252 153.889 145.252C152.997 145.252 151.157 145.348 149.921 145.348C148.685 145.348 148.529 144.148 149.033 144.016C151.297 143.52 152.149 142.836 152.873 142.188C153.004 142.069 153.176 142.003 153.353 142.004Z" fill="#263238"/>
<path d="M135.937 142.004H139.137C139.196 142.004 139.253 142.025 139.299 142.062C139.344 142.099 139.376 142.15 139.389 142.208L139.969 144.82C139.983 144.883 139.982 144.948 139.967 145.011C139.952 145.074 139.923 145.132 139.883 145.183C139.842 145.233 139.79 145.273 139.732 145.3C139.673 145.327 139.609 145.341 139.545 145.34C138.389 145.32 136.717 145.252 135.261 145.252C133.561 145.252 132.089 145.348 130.093 145.348C128.893 145.348 128.553 144.148 129.057 144.016C131.357 143.512 133.233 143.46 135.221 142.236C135.433 142.092 135.681 142.012 135.937 142.004Z" fill="#263238"/>
<path d="M134.525 46.544C132.068 46.3536 129.623 46.0291 127.201 45.572C126.001 45.34 124.777 45.08 123.561 44.752C122.314 44.433 121.09 44.0321 119.897 43.552C119.589 43.424 119.277 43.284 118.969 43.152C118.622 42.9812 118.288 42.786 117.969 42.568C117.393 42.188 116.897 41.792 116.405 41.4C115.425 40.6 114.517 39.8 113.605 38.98C111.817 37.324 110.121 35.612 108.485 33.812L109.957 32.168L115.761 36.34C116.717 37.028 117.685 37.704 118.637 38.34C119.109 38.656 119.593 38.952 120.037 39.204C120.223 39.3099 120.415 39.4034 120.613 39.484C120.849 39.576 121.089 39.668 121.341 39.756C123.503 40.4216 125.714 40.9165 127.953 41.236C130.237 41.596 132.597 41.892 134.877 42.132L134.525 46.544Z" fill="#E4897B"/>
<path d="M147.813 42.048C150.569 42.68 153.353 50.732 153.353 50.732L147.685 54.8C147.685 54.8 146.085 51.048 144.541 47.768C142.925 44.332 144.997 41.404 147.813 42.048Z" fill="#FA1239"/>
<path opacity="0.4" d="M147.813 42.048C150.569 42.68 153.353 50.732 153.353 50.732L147.685 54.8C147.685 54.8 146.085 51.048 144.541 47.768C142.925 44.332 144.997 41.404 147.813 42.048Z" fill="black"/>
<path d="M146.225 46.448L145.101 48.964C146.265 51.476 147.329 53.964 147.613 54.628C147.573 51.656 147.009 47.968 146.225 46.448Z" fill="#FA1239"/>
<path opacity="0.6" d="M146.225 46.448L145.101 48.964C146.265 51.476 147.329 53.964 147.613 54.628C147.573 51.656 147.009 47.968 146.225 46.448Z" fill="black"/>
<path d="M131.353 42.2C131.353 42.2 128.225 45.732 131.177 67.6H146.893C147.005 65.2 145.489 53.416 147.813 42.048C146.076 41.7135 144.319 41.4917 142.553 41.384C140.328 41.2559 138.098 41.2559 135.873 41.384C134.347 41.5377 132.836 41.8105 131.353 42.2Z" fill="#FA1239"/>
<path opacity="0.4" d="M131.353 42.2C131.353 42.2 128.225 45.732 131.177 67.6H146.893C147.005 65.2 145.489 53.416 147.813 42.048C146.076 41.7135 144.319 41.4917 142.553 41.384C140.328 41.2559 138.098 41.2559 135.873 41.384C134.347 41.5377 132.836 41.8105 131.353 42.2Z" fill="black"/>
<path d="M130.189 46.448C130.085 47.276 130.005 48.256 129.953 49.412C131.505 48.9462 132.98 48.2533 134.329 47.356L130.189 46.448Z" fill="#FA1239"/>
<path opacity="0.6" d="M130.189 46.448C130.085 47.276 130.005 48.256 129.953 49.412C131.505 48.9462 132.98 48.2533 134.329 47.356L130.189 46.448Z" fill="black"/>
<path d="M136.925 46.888C134.821 48.752 126.789 48.564 126.789 48.564L126.525 40.788C129.237 41.1743 131.973 41.3721 134.713 41.38C139.189 41.288 139.221 44.832 136.925 46.888Z" fill="#FA1239"/>
<path opacity="0.4" d="M136.925 46.888C134.821 48.752 126.789 48.564 126.789 48.564L126.525 40.788C129.237 41.1743 131.973 41.3721 134.713 41.38C139.189 41.288 139.221 44.832 136.925 46.888Z" fill="black"/>
<path d="M110.033 32.184L108.033 29.828L105.877 32.228C105.877 32.228 107.205 34.46 109.313 34.108L110.033 32.184Z" fill="#E4897B"/>
<path d="M105.169 27.08L104.393 30.156L105.861 32.212L108.017 29.828L105.169 27.08Z" fill="#E4897B"/>
<path d="M135.625 135.544L135.777 139.048H138.717L138.565 135.544H135.625Z" fill="#CE6F64"/>
<path d="M155.025 135.544H152.085L152.845 139.048H155.785L155.025 135.544Z" fill="#CE6F64"/>
<path d="M137.393 27.688C134.757 26.488 133.925 21.156 141.509 22.488C141.509 22.488 140.365 23.752 142.685 24.552C145.005 25.352 143.065 30.292 137.393 27.688Z" fill="#263238"/>
<path d="M143.121 31.688C142.365 34.488 142.069 36.192 140.321 37.364C137.705 39.124 134.453 37.104 134.349 34.116C134.257 31.432 135.509 27.276 138.529 26.708C139.196 26.5773 139.885 26.6196 140.53 26.8307C141.176 27.0419 141.756 27.415 142.217 27.9144C142.677 28.4138 143.002 29.0228 143.161 29.6834C143.319 30.344 143.305 31.0342 143.121 31.688Z" fill="#E4897B"/>
<path d="M141.405 23.888C143.201 24.888 145.633 25.488 145.405 26.912C145.105 28.652 146.873 27.564 146.461 30.152C146.193 31.844 143.073 36.972 140.861 36.724C137.557 36.324 137.977 31.3 137.965 28.652C137.957 27.088 137.885 21.916 141.405 23.888Z" fill="#263238"/>
<path d="M137.569 26.132C136.769 26.32 135.709 30.932 138.809 31.356C142.373 31.84 137.569 26.132 137.569 26.132Z" fill="#263238"/>
<path d="M137.649 27.768C136.669 27.856 134.449 26.676 134.721 24.9C134.721 24.888 136.125 26.976 137.649 27.768Z" fill="#263238"/>
<path d="M139.105 31.724C138.804 32.3835 138.294 32.925 137.653 33.264C136.809 33.704 136.333 33.064 136.525 32.216C136.697 31.456 137.345 30.308 138.213 30.216C139.081 30.124 139.453 30.924 139.105 31.724Z" fill="#E4897B"/>
<path d="M143.505 28.488C144.103 28.2286 144.627 27.8249 145.03 27.3132C145.434 26.8015 145.704 26.1978 145.817 25.556C145.817 25.556 147.137 29.224 143.505 28.488Z" fill="#263238"/>
<path d="M146.841 28.428C146.563 28.241 146.242 28.126 145.909 28.0932C145.575 28.0604 145.238 28.1108 144.929 28.24C144.929 28.24 146.161 26.644 146.841 28.428Z" fill="#263238"/>
<path d="M136.753 67.6C136.753 67.6 140.089 90.056 141.917 98.468C143.917 107.668 151.477 138.372 151.477 138.372H156.857C156.857 138.372 151.877 108.424 150.733 99.288C149.493 89.388 146.893 67.584 146.893 67.584L136.753 67.6Z" fill="#FA1239"/>
<path opacity="0.5" d="M136.753 67.6C136.753 67.6 140.089 90.056 141.917 98.468C143.917 107.668 151.477 138.372 151.477 138.372H156.857C156.857 138.372 151.877 108.424 150.733 99.288C149.493 89.388 146.893 67.584 146.893 67.584L136.753 67.6Z" fill="white"/>
<path d="M150.617 136.388C150.593 136.388 151.173 138.456 151.173 138.456H157.229L157.117 136.612L150.617 136.388Z" fill="#FA1239"/>
<path opacity="0.1" d="M150.617 136.388C150.593 136.388 151.173 138.456 151.173 138.456H157.229L157.117 136.612L150.617 136.388Z" fill="black"/>
<path d="M138.861 75.6C142.717 76.356 142.309 90.736 141.845 98.132C140.733 92.904 139.105 82.844 137.993 75.704C138.262 75.5714 138.568 75.5347 138.861 75.6Z" fill="#FA1239"/>
<path opacity="0.4" d="M138.861 75.6C142.717 76.356 142.309 90.736 141.845 98.132C140.733 92.904 139.105 82.844 137.993 75.704C138.262 75.5714 138.568 75.5347 138.861 75.6Z" fill="white"/>
<path d="M131.177 67.6C131.177 67.6 130.777 89.568 131.093 98.532C131.425 107.852 134.693 138.372 134.693 138.372H139.669C139.669 138.372 139.853 108.396 140.069 99.244C140.313 89.264 141.517 67.6 141.517 67.6H131.177Z" fill="#FA1239"/>
<path opacity="0.5" d="M131.177 67.6C131.177 67.6 130.777 89.568 131.093 98.532C131.425 107.852 134.693 138.372 134.693 138.372H139.669C139.669 138.372 139.853 108.396 140.069 99.244C140.313 89.264 141.517 67.6 141.517 67.6H131.177Z" fill="white"/>
<path d="M135.725 134.796C135.713 134.796 135.701 134.792 135.693 134.783C135.684 134.775 135.678 134.764 135.677 134.752C134.797 126.304 132.729 105.864 132.477 98.532C132.209 91.048 132.453 74.256 132.533 69.288C132.533 69.2753 132.538 69.263 132.547 69.254C132.556 69.245 132.568 69.24 132.581 69.24C132.594 69.24 132.607 69.2449 132.617 69.2538C132.626 69.2627 132.632 69.2749 132.633 69.288C132.553 74.256 132.309 91.048 132.577 98.528C132.837 105.86 134.905 126.292 135.777 134.74C135.777 134.754 135.772 134.767 135.764 134.777C135.755 134.787 135.743 134.794 135.729 134.796H135.725Z" fill="#FA1239"/>
<path opacity="0.4" d="M135.725 134.796C135.713 134.796 135.701 134.792 135.693 134.783C135.684 134.775 135.678 134.764 135.677 134.752C134.797 126.304 132.729 105.864 132.477 98.532C132.209 91.048 132.453 74.256 132.533 69.288C132.533 69.2753 132.538 69.263 132.547 69.254C132.556 69.245 132.568 69.24 132.581 69.24C132.594 69.24 132.607 69.2449 132.617 69.2538C132.626 69.2627 132.632 69.2749 132.633 69.288C132.553 74.256 132.309 91.048 132.577 98.528C132.837 105.86 134.905 126.292 135.777 134.74C135.777 134.754 135.772 134.767 135.764 134.777C135.755 134.787 135.743 134.794 135.729 134.796H135.725Z" fill="white"/>
<path d="M133.725 136.388C133.705 136.388 134.009 138.456 134.009 138.456H140.061L140.225 136.612L133.725 136.388Z" fill="#FA1239"/>
<path opacity="0.1" d="M133.725 136.388C133.705 136.388 134.009 138.456 134.009 138.456H140.061L140.225 136.612L133.725 136.388Z" fill="black"/>
</svg>
