<svg width="201" height="150" viewBox="0 0 201 150" fill="none" xmlns="http://www.w3.org/2000/svg">
<path d="M200.875 131.448H0.875V131.548H200.875V131.448Z" fill="#EBEBEB"/>
<path d="M180.835 137.884H167.587V137.984H180.835V137.884Z" fill="#EBEBEB"/>
<path d="M133.363 138.972H129.887V139.072H133.363V138.972Z" fill="#EBEBEB"/>
<path d="M167.187 134.172H159.511V134.272H167.187V134.172Z" fill="#EBEBEB"/>
<path d="M39.1349 134.844H21.8589V134.944H39.1349V134.844Z" fill="#EBEBEB"/>
<path d="M45.231 134.844H42.699V134.944H45.231V134.844Z" fill="#EBEBEB"/>
<path d="M90.9351 136.532H53.4631V136.632H90.9351V136.532Z" fill="#EBEBEB"/>
<path d="M95.6749 113.608H18.4389C17.8339 113.607 17.254 113.366 16.8265 112.938C16.399 112.509 16.1589 111.929 16.1589 111.324V2.75198C16.1642 2.15039 16.4066 1.57517 16.8335 1.15126C17.2604 0.727359 17.8373 0.489007 18.4389 0.487976H95.6749C96.2807 0.487976 96.8616 0.728611 97.29 1.15694C97.7183 1.58528 97.9589 2.16622 97.9589 2.77198V111.324C97.9589 111.93 97.7183 112.511 97.29 112.939C96.8616 113.367 96.2807 113.608 95.6749 113.608ZM18.4389 0.567976C17.8604 0.569036 17.3059 0.799602 16.8972 1.20907C16.4885 1.61853 16.2589 2.17344 16.2589 2.75198V111.324C16.2589 111.903 16.4885 112.457 16.8972 112.867C17.3059 113.276 17.8604 113.507 18.4389 113.508H95.6749C96.2538 113.507 96.8087 113.276 97.2181 112.867C97.6274 112.458 97.8579 111.903 97.8589 111.324V2.75198C97.8579 2.17307 97.6274 1.61817 97.2181 1.20882C96.8087 0.799472 96.2538 0.569034 95.6749 0.567976H18.4389Z" fill="#EBEBEB"/>
<path d="M182.199 113.608H104.959C104.354 113.607 103.773 113.366 103.345 112.938C102.917 112.51 102.676 111.929 102.675 111.324V2.75198C102.681 2.15002 102.925 1.57481 103.352 1.15101C103.78 0.72722 104.357 0.488995 104.959 0.487976H182.199C182.8 0.490058 183.376 0.728876 183.802 1.15267C184.228 1.57646 184.47 2.15108 184.475 2.75198V111.324C184.475 111.928 184.236 112.508 183.809 112.936C183.382 113.364 182.803 113.606 182.199 113.608ZM104.959 0.567976C104.38 0.569034 103.825 0.799472 103.416 1.20882C103.007 1.61817 102.776 2.17307 102.775 2.75198V111.324C102.776 111.903 103.007 112.458 103.416 112.867C103.825 113.276 104.38 113.507 104.959 113.508H182.199C182.778 113.507 183.333 113.276 183.742 112.867C184.152 112.458 184.382 111.903 184.383 111.324V2.75198C184.382 2.17307 184.152 1.61817 183.742 1.20882C183.333 0.799472 182.778 0.569034 182.199 0.567976H104.959Z" fill="#EBEBEB"/>
<path d="M150.139 30.492H144.471V48.136H150.139V30.492Z" fill="#E6E6E6"/>
<path d="M165.503 48.136H146.695L143.855 27.484H162.663L165.503 48.136Z" fill="#F0F0F0"/>
<path d="M167.539 48.136H148.115L145.275 27.484H164.699L167.539 48.136Z" fill="#F5F5F5"/>
<path d="M149.519 46.508L147.127 29.112H163.295L165.691 46.508H149.519Z" fill="white"/>
<path d="M152.715 41.24L151.815 34.712C151.788 34.5397 151.799 34.3636 151.848 34.1961C151.896 34.0285 151.98 33.8735 152.094 33.7418C152.208 33.61 152.35 33.5048 152.509 33.4333C152.668 33.3618 152.841 33.3259 153.015 33.328H158.891C159.185 33.3257 159.47 33.4316 159.691 33.6256C159.912 33.8195 160.055 34.088 160.091 34.38L160.987 40.912C161.013 41.0839 161.001 41.2596 160.953 41.4266C160.904 41.5937 160.82 41.7482 160.706 41.8795C160.592 42.0107 160.451 42.1156 160.292 42.1868C160.133 42.2581 159.961 42.2939 159.787 42.292H153.919C153.624 42.2952 153.338 42.1897 153.116 41.9957C152.894 41.8016 152.751 41.5326 152.715 41.24Z" fill="#F5F5F5"/>
<path d="M114.855 11.16H30.1392V63.42H114.855V11.16Z" fill="#E6E6E6"/>
<path d="M117.031 11.16H31.155V63.42H117.031V11.16Z" fill="#F0F0F0"/>
<path d="M114.855 63.424H30.1392V67.468H114.855V63.424Z" fill="#E6E6E6"/>
<path d="M120.655 63.424H34.7788V67.468H120.655V63.424Z" fill="#F0F0F0"/>
<path d="M113.983 60.376V14.208L34.2029 14.208V60.376L113.983 60.376Z" fill="#FAFAFA"/>
<path d="M40.0591 60.376L57.9431 14.208H66.3831L48.4991 60.376H40.0591Z" fill="white"/>
<path d="M50.3149 60.376L68.1989 14.208H71.4869L53.6029 60.376H50.3149Z" fill="white"/>
<path d="M81.603 60.376L99.487 14.208H102.775L84.895 60.376H81.603Z" fill="white"/>
<path d="M113.979 60.376V14.208H113.591V60.376H113.979Z" fill="#E6E6E6"/>
<path d="M179.075 48.136H161.139V131.448H179.075V48.136Z" fill="#E6E6E6"/>
<path d="M177.271 131.448H179.075V126.316H175.379L177.271 131.448Z" fill="#F0F0F0"/>
<path d="M147.647 48.136H129.711V131.448H147.647V48.136Z" fill="#E6E6E6"/>
<path d="M179.075 48.136H146.071V128.3H179.075V48.136Z" fill="#F0F0F0"/>
<path d="M147.875 131.448H146.071V126.316H149.767L147.875 131.448Z" fill="#F0F0F0"/>
<path d="M177.675 49.604H147.471V87.42H177.675V49.604Z" fill="#E6E6E6"/>
<path d="M165.843 52.548H159.303C157.897 52.5479 156.506 52.2612 155.214 51.7055C153.923 51.1498 152.758 50.3368 151.791 49.316H173.355C172.389 50.3373 171.224 51.1508 169.932 51.7065C168.641 52.2622 167.249 52.5486 165.843 52.548Z" fill="#F0F0F0"/>
<path d="M177.675 88.952H147.471V126.768H177.675V88.952Z" fill="#E6E6E6"/>
<path d="M165.843 91.896H159.303C157.897 91.8958 156.506 91.6092 155.214 91.0535C153.923 90.4978 152.758 89.6848 151.791 88.664H173.355C172.389 89.6853 171.224 90.4988 169.932 91.0545C168.641 91.6102 167.249 91.8965 165.843 91.896Z" fill="#F0F0F0"/>
<path d="M52.675 74.444H82.523L86.8511 92.072H56.999L52.675 74.444Z" fill="#E6E6E6"/>
<path d="M56.999 92.072L57.123 93.044H86.971L86.851 92.072H56.999Z" fill="#E6E6E6"/>
<path d="M53.595 74.444H83.443L87.771 92.072H57.919L53.595 74.444Z" fill="#F0F0F0"/>
<path d="M58.5509 91.264L54.6189 75.248H82.8109L86.7429 91.264H58.5509Z" fill="white"/>
<path d="M65.699 92.072L65.819 93.044H98.687L98.567 92.072H65.699Z" fill="#F0F0F0"/>
<path d="M106.187 93.044H102.611V131.444H106.187V93.044Z" fill="#E6E6E6"/>
<path d="M107.319 93.044H104.835V131.444H107.319V93.044Z" fill="#F0F0F0"/>
<path d="M62.0071 97.44H108.091V93.044H62.0071V97.44Z" fill="#F0F0F0"/>
<path d="M60.4029 97.44H56.8269V131.444H60.4029V97.44Z" fill="#E6E6E6"/>
<path d="M61.5311 97.44H59.0471V131.444H61.5311V97.44Z" fill="#F0F0F0"/>
<path d="M37.7669 97.44H34.1909V131.444H37.7669V97.44Z" fill="#E6E6E6"/>
<path d="M38.899 97.44H36.415V131.444H38.899V97.44Z" fill="#F0F0F0"/>
<path d="M83.555 97.44H79.979V131.444H83.555V97.44Z" fill="#E6E6E6"/>
<path d="M84.683 97.44H82.199V131.444H84.683V97.44Z" fill="#F0F0F0"/>
<path d="M62.0029 93.044H34.1909V97.44H62.0029V93.044Z" fill="#E6E6E6"/>
<path d="M117.811 131.448H116.943L114.475 119.192L114.039 117.044L111.303 103.688H100.903L95.275 131.448H94.395L100.139 103.176C100.157 103.082 100.207 102.998 100.279 102.936C100.352 102.874 100.444 102.839 100.539 102.836H111.675C111.771 102.835 111.865 102.869 111.939 102.931C112.012 102.994 112.061 103.081 112.075 103.176L114.475 114.904L114.875 117.048L117.811 131.448Z" fill="#F0F0F0"/>
<path d="M134.511 131.448H133.639L127.999 103.688H117.599L114.875 117.048L114.475 119.192L111.983 131.448H111.115L114.039 117.048L114.471 114.908L116.871 103.18C116.89 103.087 116.939 103.002 117.012 102.941C117.085 102.879 117.176 102.843 117.271 102.84H128.371C128.466 102.843 128.558 102.878 128.631 102.94C128.703 103.002 128.753 103.086 128.771 103.18L134.511 131.448Z" fill="#F0F0F0"/>
<path d="M108.875 103.26H127.987C131.635 103.26 133.659 100.78 134.691 96.692L135.195 94.356C135.365 93.6494 135.373 92.9134 135.217 92.2036C135.061 91.4937 134.746 90.8284 134.296 90.258C133.846 89.6875 133.272 89.2268 132.618 88.9105C131.963 88.5941 131.246 88.4305 130.519 88.432H118.519C116.039 88.432 115.383 89.024 113.667 92.76C111.951 96.496 108.875 103.26 108.875 103.26Z" fill="#F0F0F0"/>
<path d="M119.295 103.26H98.9269C98.6734 103.26 98.4302 103.159 98.2509 102.98C98.0716 102.801 97.9709 102.558 97.9709 102.304V102.216C97.9709 101.872 98.0386 101.532 98.1701 101.215C98.3015 100.897 98.4942 100.609 98.7371 100.366C98.9801 100.123 99.2684 99.9306 99.5858 99.7991C99.9032 99.6676 100.243 99.6 100.587 99.6H119.295V103.264V103.26Z" fill="#F0F0F0"/>
<path d="M100.875 149.512C143.708 149.512 178.431 147.485 178.431 144.984C178.431 142.483 143.708 140.456 100.875 140.456C58.0419 140.456 23.3188 142.483 23.3188 144.984C23.3188 147.485 58.0419 149.512 100.875 149.512Z" fill="#F5F5F5"/>
<path d="M82.0872 132.188L79.5272 133.836L74.8872 128.44L77.4472 126.792L82.0872 132.188Z" fill="#FF8B7B"/>
<path opacity="0.2" d="M77.4512 126.792L74.8872 128.44L77.2832 131.224L79.8432 129.572L77.4512 126.792Z" fill="black"/>
<path d="M62.523 140.988L59.579 141.276L56.519 134.276L59.463 133.988L62.523 140.988Z" fill="#FF8B7B"/>
<path opacity="0.2" d="M56.5229 134.28L58.099 137.888H61.1669L59.463 133.992L56.5229 134.28Z" fill="black"/>
<path d="M40.1669 46.488C38.6869 46.62 38.6469 44.108 36.0469 45.288C32.7429 46.792 33.8589 49.124 31.2789 49.028C28.6989 48.932 26.9709 50.944 27.5469 52.444C28.1229 53.944 29.0149 55.364 27.1909 55.968C25.3669 56.572 24.1269 57.104 24.3909 58.616C24.6549 60.128 25.9469 60.736 23.7709 61.7C21.5949 62.664 21.8149 66.832 23.9469 66.836C26.0789 66.84 24.0349 68.916 25.9469 71.028C27.8589 73.14 30.7669 73.428 31.9789 72.388C33.1909 71.348 34.5429 70.488 36.8229 72.088C39.1029 73.688 42.9629 74.088 42.7869 71.552C42.6109 69.016 40.3869 67.352 42.4829 66.032C44.5789 64.712 47.2829 64.06 46.4349 61.492C45.8949 59.892 44.2629 58.5 45.5789 57.304C47.7189 55.36 47.7309 50.96 45.1069 49.844C43.5829 49.2 45.0509 46.048 40.1669 46.488Z" fill="#263238"/>
<path d="M37.319 66.256C37.247 67.456 37.095 68.524 36.919 69.648C36.743 70.772 36.487 71.868 36.195 72.968C35.9104 74.08 35.5482 75.1706 35.111 76.232C34.895 76.768 34.647 77.3 34.383 77.832C34.251 78.096 34.107 78.356 33.959 78.612C33.891 78.744 33.807 78.872 33.731 79.012L33.615 79.2C33.5363 79.3252 33.448 79.4442 33.351 79.556C33.1292 79.8066 32.8564 80.007 32.551 80.144C32.2782 80.2675 31.9857 80.342 31.687 80.364C31.2477 80.3892 30.8077 80.3295 30.391 80.188C29.7705 79.9747 29.1793 79.6844 28.631 79.324C27.6656 78.6924 26.752 77.9848 25.899 77.208C24.2546 75.7121 22.7212 74.0985 21.311 72.38L22.447 71.288C23.247 71.992 24.047 72.708 24.883 73.388C25.719 74.068 26.535 74.752 27.387 75.388C28.1982 76.0121 29.0538 76.5763 29.947 77.076C30.3247 77.2899 30.7279 77.4553 31.147 77.568C31.2479 77.5992 31.3542 77.6088 31.459 77.596H31.379C31.3262 77.6217 31.2776 77.6554 31.235 77.696L31.215 77.716L31.303 77.552C31.359 77.444 31.423 77.34 31.475 77.228C31.587 77.0066 31.695 76.7826 31.799 76.556C31.999 76.1 32.199 75.636 32.359 75.152C32.695 74.192 32.975 73.2 33.223 72.192C33.471 71.184 33.659 70.156 33.827 69.12C33.995 68.084 34.123 67.024 34.227 66.04L37.319 66.256Z" fill="#FF8B7B"/>
<path d="M39.643 66.632C39.483 67.6 38.679 69.432 38.043 70.792C37.571 71.776 37.187 72.516 37.187 72.516L36.627 72.268L31.991 70.204C32.343 67.704 32.915 65.004 35.671 63.776C37.391 63.016 39.927 64.888 39.643 66.632Z" fill="#FA1239"/>
<path opacity="0.6" d="M39.643 66.632C39.483 67.6 38.679 69.432 38.043 70.792C37.571 71.776 37.187 72.516 37.187 72.516L36.627 72.268L31.991 70.204C32.343 67.704 32.915 65.004 35.671 63.776C37.391 63.016 39.927 64.888 39.643 66.632Z" fill="black"/>
<path opacity="0.3" d="M38.031 70.792C37.559 71.776 37.175 72.516 37.175 72.516L36.615 72.268C36.691 71.28 36.887 69.724 37.415 69.024C37.7448 69.5623 37.9549 70.1653 38.031 70.792Z" fill="black"/>
<path d="M22.6232 72.204L22.9912 69.512L19.9712 70.488C19.9712 70.488 20.4512 72.116 21.5272 72.784L22.6232 72.204Z" fill="#FF8B7B"/>
<path d="M21.6231 67.212L19.5151 68.368L19.9711 70.504L22.9911 69.512L21.6231 67.212Z" fill="#FF8B7B"/>
<path d="M78.5832 133.028L81.3632 131.028C81.4109 130.993 81.4696 130.977 81.5285 130.982C81.5873 130.987 81.6423 131.013 81.6832 131.056L83.5752 133.028C83.6212 133.079 83.6559 133.139 83.6769 133.205C83.698 133.27 83.705 133.34 83.6974 133.408C83.6899 133.476 83.6679 133.542 83.6331 133.602C83.5983 133.661 83.5513 133.712 83.4952 133.752C82.5152 134.432 82.0072 134.708 80.7832 135.584C80.0312 136.124 78.4472 137.428 77.4072 138.172C76.3672 138.916 75.5792 137.932 75.9432 137.528C77.5832 135.72 78.0192 134.488 78.2792 133.472C78.3262 133.293 78.4337 133.136 78.5832 133.028Z" fill="#263238"/>
<path d="M59.1911 140.368H62.7911C62.8559 140.369 62.9185 140.391 62.9697 140.431C63.0209 140.47 63.0579 140.526 63.0751 140.588L63.8751 143.444C63.8946 143.511 63.8979 143.583 63.8848 143.652C63.8717 143.721 63.8426 143.786 63.7997 143.841C63.7569 143.897 63.7016 143.942 63.6383 143.972C63.5749 144.002 63.5053 144.017 63.4351 144.016C62.1631 144.016 61.5591 144.016 59.9711 144.016H55.1151C53.7951 144.016 53.5151 142.68 54.0631 142.56C56.5111 142.02 57.9231 141.272 58.6791 140.56C58.8192 140.433 59.0023 140.365 59.1911 140.368Z" fill="#263238"/>
<path d="M53.6951 77.472L41.9071 81.2C33.7471 65.048 34.9111 64.192 34.9111 64.192C34.9111 64.192 36.7951 63.116 38.7551 62.22C39.0511 62.084 39.3511 61.952 39.6471 61.82C41.3885 61.1279 43.177 60.5612 44.9991 60.124C45.2671 60.052 45.5351 59.988 45.7991 59.924C47.2502 59.5958 48.7194 59.3541 50.1991 59.2C50.3751 61.436 50.5511 63.328 50.7431 64.972C50.9911 67.116 51.2591 68.832 51.5431 70.316C52.0681 72.755 52.7877 75.148 53.6951 77.472Z" fill="#FA1239"/>
<path opacity="0.6" d="M53.6951 77.472L41.9071 81.2C33.7471 65.048 34.9111 64.192 34.9111 64.192C34.9111 64.192 36.7951 63.116 38.7551 62.22C39.0511 62.084 39.3511 61.952 39.6471 61.82C41.3885 61.1279 43.177 60.5612 44.9991 60.124C45.2671 60.052 45.5351 59.988 45.7991 59.924C47.2502 59.5958 48.7194 59.3541 50.1991 59.2C50.3751 61.436 50.5511 63.328 50.7431 64.972C50.9911 67.116 51.2591 68.832 51.5431 70.316C52.0681 72.755 52.7877 75.148 53.6951 77.472Z" fill="black"/>
<path opacity="0.3" d="M51.5749 70.324C50.4429 68.724 49.3589 65 49.6389 63.604L50.7589 64.98C51.0069 67.124 51.2749 68.84 51.5749 70.324Z" fill="black"/>
<path d="M42.3269 67.208C42.3269 67.208 45.2989 66.564 46.2549 67.856C47.5669 66.564 47.1029 61.516 46.4709 59.716C45.9697 59.8011 45.478 59.9351 45.0029 60.116L42.9029 63.364L42.3269 67.208Z" fill="white"/>
<path d="M42.3272 67.208C42.3272 67.208 40.3272 67.656 40.1152 69.292C37.3152 67.208 37.5112 64.156 38.1432 62.356C38.623 62.1237 39.1276 61.9466 39.6472 61.828L41.7472 64.14L42.3272 67.208Z" fill="white"/>
<path d="M43.0111 56.724C43.4111 58.196 44.0191 59.652 45.0111 60.132C45.0111 60.132 45.9351 62.78 42.3351 67.208C38.5671 64.524 39.6551 61.828 39.6551 61.828C41.4311 60.76 40.9311 59.352 40.1751 58.12L41.2191 56.444C41.3231 56.2825 41.4717 56.1547 41.6469 56.0761C41.8222 55.9975 42.0164 55.9714 42.2062 56.0011C42.3959 56.0307 42.573 56.1148 42.7158 56.2431C42.8587 56.3715 42.9613 56.5385 43.0111 56.724Z" fill="#FF8B7B"/>
<path opacity="0.2" d="M43.0111 56.724C42.9633 56.5354 42.861 56.365 42.7171 56.2341C42.5732 56.1031 42.3939 56.0174 42.2017 55.9875C42.0094 55.9577 41.8126 55.9851 41.6357 56.0662C41.4589 56.1474 41.3098 56.2787 41.2071 56.444L40.8711 56.98C40.8991 57.336 40.9151 57.628 40.9111 57.78C40.8791 58.82 42.3391 58.772 43.5271 58.272C43.3153 57.7701 43.1428 57.2526 43.0111 56.724Z" fill="black"/>
<path d="M35.775 52.704C36.815 55.54 37.191 56.764 39.095 57.812C41.955 59.392 45.211 57.496 45.043 54.404C44.891 51.624 43.219 47.448 40.047 47.14C39.3479 47.0692 38.6422 47.1782 37.997 47.4568C37.3518 47.7353 36.7885 48.1741 36.3605 48.7315C35.9325 49.2889 35.6541 49.9464 35.5516 50.6417C35.4492 51.3369 35.5261 52.0468 35.775 52.704Z" fill="#FF8B7B"/>
<path d="M43.131 48.44C42.155 47.5 41.131 46.408 39.171 46.62C37.003 46.856 36.147 48.168 36.147 48.168L34.283 52.244C34.283 52.244 35.439 57.492 37.347 55.044C38.447 53.628 38.475 51.488 38.075 49.888C38.8245 49.7823 39.5634 49.611 40.283 49.376C41.163 49.704 42.151 49.704 42.883 49.032C43.043 48.884 43.159 48.768 43.243 48.676L43.311 48.6C43.527 48.324 43.347 48.352 43.131 48.44ZM40.611 49.288C41.2943 49.067 41.9885 48.8814 42.691 48.732C42.4298 49.0082 42.097 49.2065 41.7297 49.3047C41.3625 49.4029 40.9751 49.3971 40.611 49.288Z" fill="#263238"/>
<path d="M35.9191 55.588C36.2194 56.0914 36.707 56.4553 37.2751 56.6C38.0271 56.788 38.3831 56.112 38.1551 55.4C37.9511 54.772 37.3151 53.916 36.5551 54.036C36.3908 54.066 36.2367 54.1369 36.1069 54.2421C35.9772 54.3473 35.876 54.4835 35.8127 54.638C35.7493 54.7926 35.7259 54.9606 35.7445 55.1266C35.7631 55.2926 35.8231 55.4512 35.9191 55.588Z" fill="#FF8B7B"/>
<path d="M41.907 81.204C41.907 81.204 41.507 105.36 44.663 114.088C47.703 122.456 56.771 136.84 56.771 136.84L62.027 136.708C62.027 136.708 53.675 118.488 52.311 111.288C50.039 99.34 50.539 78.488 50.539 78.488L41.907 81.204Z" fill="#FA1239"/>
<path opacity="0.3" d="M46.627 83.288L48.039 79.288L50.539 78.488C50.539 78.488 50.311 87.98 50.859 97.824C48.591 93.456 46.627 85.456 46.627 83.288Z" fill="black"/>
<path d="M56.0311 137.112L62.5231 136.948L62.1471 134.952L55.0591 135.288L56.0311 137.112Z" fill="#263238"/>
<path d="M44.4751 80.424C44.4751 80.424 52.6751 99.18 57.9751 109.856C62.2551 118.48 75.5751 130.048 75.5751 130.048L79.2271 127.516C79.2271 127.516 69.2031 113.812 66.2471 107.964C56.7871 89.252 59.1191 81.54 53.6791 77.472L44.4751 80.424Z" fill="#FA1239"/>
<path d="M75.791 131.256L80.079 128.204L79.107 126.332L74.395 129.896L75.791 131.256Z" fill="#263238"/>
<path d="M53.6749 76.724L54.5389 77.612C54.6069 77.68 54.5389 77.796 54.3989 77.84L42.0349 81.748C41.9309 81.784 41.8269 81.748 41.7989 81.696L41.3589 80.672C41.3269 80.604 41.3989 80.512 41.5149 80.476L53.4549 76.696C53.4909 76.6811 53.5301 76.6759 53.5686 76.6808C53.6072 76.6857 53.6439 76.7006 53.6749 76.724Z" fill="#263238"/>
<path d="M52.4749 78.568L52.7949 78.468C52.8589 78.468 52.8989 78.396 52.8789 78.36L52.2989 77.036C52.2817 77.0144 52.2579 76.9991 52.2311 76.9926C52.2043 76.986 52.176 76.9886 52.1509 77L51.8309 77.104C51.7669 77.124 51.7269 77.172 51.7469 77.212L52.3309 78.532C52.3429 78.572 52.4069 78.588 52.4749 78.568Z" fill="#FA1239"/>
<path d="M42.9509 81.58L43.2709 81.48C43.3349 81.46 43.3709 81.412 43.3549 81.372L42.7709 80.048C42.7709 80.008 42.6869 79.996 42.6229 80.016L42.3029 80.116C42.2429 80.136 42.2029 80.184 42.2189 80.224L42.8029 81.548C42.8209 81.5683 42.845 81.5824 42.8716 81.5882C42.8983 81.594 42.926 81.5911 42.9509 81.58Z" fill="#FA1239"/>
<path d="M47.7112 80.088L48.0312 79.988C48.0952 79.968 48.1352 79.92 48.1152 79.88L47.5312 78.556C47.5312 78.52 47.4512 78.504 47.3872 78.524L47.0672 78.624C47.0032 78.624 46.9632 78.692 46.9832 78.732L47.5632 80.056C47.5832 80.088 47.6472 80.088 47.7112 80.088Z" fill="#FA1239"/>
<path d="M40.7512 52.088C40.8232 52.324 41.0032 52.488 41.1512 52.432C41.2992 52.376 41.3712 52.156 41.2992 51.924C41.2272 51.692 41.0512 51.524 40.8992 51.58C40.7472 51.636 40.6832 51.844 40.7512 52.088Z" fill="#263238"/>
<path d="M43.411 51.288C43.483 51.524 43.663 51.688 43.811 51.632C43.959 51.576 44.031 51.36 43.963 51.124C43.895 50.888 43.711 50.724 43.563 50.78C43.415 50.836 43.343 51.052 43.411 51.288Z" fill="#263238"/>
<path d="M43.499 50.812L44.015 50.4799C44.015 50.4799 43.859 51.008 43.499 50.812Z" fill="#263238"/>
<path d="M42.7471 51.9C43.1182 52.3733 43.5514 52.7944 44.0351 53.152C43.9386 53.2725 43.8171 53.3707 43.679 53.4397C43.5408 53.5088 43.3894 53.5471 43.2351 53.552L42.7471 51.9Z" fill="#FF5652"/>
<path d="M42.443 54.848C42.454 54.8391 42.4622 54.8271 42.4665 54.8136C42.4707 54.8001 42.4709 54.7856 42.467 54.772C42.4614 54.7539 42.4493 54.7386 42.433 54.729C42.4168 54.7193 42.3975 54.7161 42.379 54.72C42.0885 54.8149 41.7796 54.8393 41.4777 54.7913C41.1759 54.7433 40.8898 54.6243 40.643 54.444C40.6356 54.4377 40.6271 54.4329 40.6179 54.4299C40.6087 54.4269 40.599 54.4257 40.5893 54.4264C40.5797 54.4272 40.5703 54.4298 40.5616 54.4342C40.553 54.4386 40.5453 54.4446 40.539 54.452C40.5327 54.4593 40.5279 54.4678 40.5249 54.4771C40.5219 54.4863 40.5207 54.496 40.5215 54.5056C40.5222 54.5153 40.5248 54.5247 40.5292 54.5333C40.5336 54.542 40.5396 54.5497 40.547 54.556C40.8123 54.752 41.1206 54.8818 41.4462 54.9347C41.7718 54.9876 42.1053 54.962 42.419 54.86L42.443 54.848Z" fill="#263238"/>
<path d="M39.7471 51.436C39.7658 51.4184 39.7795 51.3964 39.7871 51.372C39.8465 51.2012 39.9451 51.0467 40.075 50.921C40.2049 50.7953 40.3625 50.7017 40.5351 50.648C40.5552 50.6459 40.5746 50.6396 40.5921 50.6295C40.6096 50.6193 40.6248 50.6057 40.6367 50.5893C40.6486 50.573 40.6568 50.5543 40.661 50.5345C40.6652 50.5148 40.6652 50.4943 40.6609 50.4746C40.6567 50.4548 40.6484 50.4362 40.6364 50.4199C40.6245 50.4035 40.6093 50.3899 40.5918 50.3798C40.5743 50.3698 40.5548 50.3635 40.5347 50.3615C40.5146 50.3594 40.4943 50.3616 40.4751 50.368C40.2527 50.4316 40.0493 50.5487 39.8827 50.7091C39.716 50.8694 39.5912 51.0682 39.5191 51.288C39.5121 51.3058 39.5086 51.3249 39.5091 51.3441C39.5095 51.3632 39.5137 51.3821 39.5216 51.3996C39.5294 51.4171 39.5406 51.4329 39.5546 51.446C39.5686 51.4591 39.5851 51.4693 39.6031 51.476C39.6286 51.4812 39.6549 51.4803 39.6799 51.4733C39.705 51.4664 39.728 51.4536 39.7471 51.436Z" fill="#263238"/>
<path d="M44.223 49.78C44.2216 49.7707 44.2216 49.7612 44.223 49.752C44.2279 49.7146 44.2188 49.6766 44.1974 49.6456C44.1759 49.6145 44.1437 49.5926 44.107 49.584C43.8828 49.5363 43.6506 49.5426 43.4294 49.6024C43.2082 49.6622 43.0045 49.7738 42.835 49.928C42.8084 49.9555 42.794 49.9925 42.7947 50.0308C42.7955 50.069 42.8114 50.1054 42.839 50.132C42.8665 50.1585 42.9035 50.173 42.9418 50.1722C42.98 50.1715 43.0164 50.1555 43.043 50.128C43.1784 50.008 43.3404 49.9219 43.5157 49.8767C43.6909 49.8315 43.8743 49.8285 44.051 49.868C44.0854 49.8763 44.1217 49.872 44.1533 49.8559C44.1849 49.8397 44.2096 49.8128 44.223 49.78Z" fill="#263238"/>
<path d="M52.0071 62.032C52.4831 62.388 52.8831 62.7199 53.2991 63.0799C53.7151 63.4399 54.0991 63.8 54.4991 64.176C55.2791 64.928 56.0311 65.7119 56.7431 66.5359C57.463 67.3645 58.1309 68.2369 58.7431 69.1479C58.9031 69.3719 59.0431 69.6159 59.1911 69.8479C59.3391 70.0799 59.4871 70.316 59.6191 70.564C59.7511 70.812 59.8911 71.032 60.0191 71.308L60.2311 71.752L60.4031 72.2C60.7718 73.3358 60.9449 74.5261 60.9151 75.72C60.8908 76.8294 60.7717 77.9348 60.5591 79.0239C60.3511 80.0919 60.0791 81.1359 59.7591 82.1599C59.4364 83.1857 59.0599 84.1938 58.6311 85.18L57.1831 84.644C57.4311 83.684 57.6671 82.676 57.8431 81.68C58.0385 80.6936 58.1814 79.6975 58.2711 78.696C58.3672 77.7257 58.3899 76.7496 58.3391 75.776C58.3104 75.3144 58.2543 74.8549 58.1711 74.4C58.0833 73.9801 57.9616 73.5681 57.8071 73.1679L57.6831 72.8919L57.5471 72.64C57.4391 72.456 57.2911 72.2399 57.1471 72.0359C57.0031 71.8319 56.8831 71.636 56.7471 71.432C56.6111 71.228 56.4711 71.032 56.3191 70.84C55.7351 70.04 55.0751 69.312 54.4191 68.572C53.7631 67.832 53.0431 67.136 52.3111 66.456C51.9511 66.112 51.5791 65.7759 51.2071 65.4479C50.8351 65.1199 50.4351 64.792 50.0911 64.512L52.0071 62.032Z" fill="#FF8B7B"/>
<path d="M57.6429 83.688L55.4509 85.288L58.2509 86.768C58.2509 86.768 59.0869 85.288 58.8189 84.052L57.6429 83.688Z" fill="#FF8B7B"/>
<path d="M54.759 87.884L57.051 88.592L58.271 86.776L55.451 85.296L54.759 87.884Z" fill="#FF8B7B"/>
<path d="M50.215 59.208C51.747 59.14 54.759 62.904 54.759 62.904L51.631 67.328C51.631 67.328 48.119 64.528 47.847 62.58C47.619 60.92 48.263 59.288 50.215 59.208Z" fill="#FA1239"/>
<path opacity="0.6" d="M50.215 59.208C51.747 59.14 54.759 62.904 54.759 62.904L51.631 67.328C51.631 67.328 48.119 64.528 47.847 62.58C47.619 60.92 48.263 59.288 50.215 59.208Z" fill="black"/>
<path d="M77.5311 134.28H77.4831C77.413 134.271 77.3464 134.244 77.2902 134.201C77.234 134.158 77.1902 134.101 77.1631 134.036C77.1421 133.998 77.1311 133.955 77.1311 133.912C77.1311 133.869 77.1421 133.826 77.1631 133.788C77.3591 133.452 78.4591 133.388 78.5831 133.388C78.5971 133.388 78.6107 133.391 78.6227 133.398C78.6347 133.406 78.6446 133.416 78.6511 133.428C78.6591 133.44 78.6633 133.454 78.6633 133.468C78.6633 133.482 78.6591 133.496 78.6511 133.508C78.3831 133.804 77.9071 134.28 77.5311 134.28ZM78.4111 133.548C77.9711 133.58 77.3871 133.684 77.2871 133.86C77.2763 133.876 77.2705 133.895 77.2705 133.914C77.2705 133.933 77.2763 133.952 77.2871 133.968C77.3041 134.012 77.3322 134.05 77.3687 134.08C77.4052 134.109 77.4488 134.129 77.4951 134.136C77.7071 134.16 78.0431 133.94 78.4111 133.548Z" fill="#FA1239"/>
<path d="M78.507 133.54C78.139 133.54 77.415 133.336 77.279 133.04C77.2573 132.988 77.2534 132.929 77.2678 132.874C77.2823 132.82 77.3143 132.771 77.359 132.736C77.4005 132.699 77.4494 132.671 77.5024 132.653C77.5555 132.636 77.6115 132.63 77.667 132.636C78.103 132.684 78.619 133.392 78.639 133.436C78.6457 133.447 78.6493 133.459 78.6493 133.472C78.6493 133.485 78.6457 133.497 78.639 133.508C78.6335 133.519 78.6255 133.528 78.6158 133.535C78.606 133.542 78.5948 133.546 78.583 133.548L78.507 133.54ZM77.619 132.78C77.5593 132.78 77.5019 132.803 77.459 132.844C77.391 132.904 77.399 132.952 77.411 132.984C77.499 133.176 78.067 133.384 78.439 133.384C78.255 133.156 77.911 132.796 77.639 132.768L77.619 132.78Z" fill="#FA1239"/>
<path d="M57.587 140.964C57.3407 140.982 57.0948 140.923 56.883 140.796C56.8281 140.756 56.783 140.703 56.7512 140.643C56.7193 140.583 56.7015 140.516 56.699 140.448C56.6958 140.41 56.7026 140.372 56.7187 140.338C56.7349 140.303 56.7598 140.274 56.791 140.252C57.119 140.032 58.347 140.588 58.591 140.704C58.6047 140.71 58.616 140.72 58.6232 140.733C58.6304 140.746 58.6332 140.761 58.631 140.776C58.6297 140.791 58.6236 140.806 58.6135 140.817C58.6034 140.829 58.59 140.837 58.575 140.84C58.2507 140.914 57.9197 140.956 57.587 140.964ZM57.015 140.34C56.965 140.337 56.9153 140.348 56.871 140.372C56.8607 140.38 56.8526 140.39 56.8477 140.402C56.8428 140.414 56.8412 140.427 56.843 140.44C56.8446 140.487 56.8569 140.533 56.8791 140.575C56.9013 140.616 56.9328 140.652 56.971 140.68C57.183 140.84 57.683 140.864 58.327 140.744C57.9135 140.542 57.4708 140.405 57.015 140.34Z" fill="#FA1239"/>
<path d="M58.5591 140.84H58.5351C58.1351 140.672 57.3031 140.012 57.3351 139.672C57.3351 139.6 57.3951 139.504 57.5791 139.484C58.2991 139.396 58.6031 140.684 58.6151 140.756C58.6178 140.769 58.617 140.783 58.6128 140.795C58.6085 140.808 58.6011 140.819 58.5911 140.828C58.5817 140.835 58.5707 140.839 58.5591 140.84ZM57.6751 139.62H57.6271C57.5511 139.62 57.5111 139.652 57.5031 139.688C57.4791 139.884 58.0471 140.408 58.4631 140.636C58.3551 140.32 58.0951 139.62 57.6751 139.62Z" fill="#FA1239"/>
<path d="M40.8391 51.604L41.3551 51.272C41.3551 51.272 41.1991 51.8 40.8391 51.604Z" fill="#263238"/>
<path d="M116.327 22.356H58.195C57.5739 22.3517 56.9585 22.4748 56.3868 22.7175C55.8151 22.9602 55.2992 23.3174 54.8708 23.7671C54.4424 24.2168 54.1107 24.7495 53.8961 25.3324C53.6815 25.9152 53.5885 26.5358 53.623 27.156L59.075 140.184C59.1526 141.472 59.7146 142.682 60.648 143.572C61.5814 144.463 62.8171 144.967 64.107 144.984H122.239C122.86 144.988 123.475 144.865 124.047 144.622C124.618 144.38 125.134 144.022 125.562 143.573C125.99 143.123 126.321 142.59 126.535 142.007C126.75 141.424 126.842 140.804 126.807 140.184L121.359 27.156C121.281 25.8684 120.719 24.6578 119.786 23.7674C118.853 22.8771 117.617 22.3728 116.327 22.356Z" fill="black"/>
<path d="M118.475 22.356H60.3267C59.7058 22.3517 59.0906 22.4747 58.5191 22.7175C57.9476 22.9602 57.4319 23.3175 57.0038 23.7673C56.5758 24.2171 56.2444 24.7499 56.0303 25.3327C55.8161 25.9155 55.7237 26.536 55.7587 27.156L61.2067 140.184C61.2844 141.472 61.8463 142.682 62.7797 143.572C63.7131 144.463 64.9488 144.967 66.2387 144.984H124.371C124.992 144.988 125.607 144.865 126.178 144.622C126.75 144.38 127.266 144.022 127.694 143.573C128.122 143.123 128.453 142.59 128.667 142.007C128.881 141.424 128.974 140.804 128.939 140.184L123.491 27.156C123.413 25.8711 122.854 24.6628 121.924 23.7728C120.993 22.8828 119.762 22.3768 118.475 22.356Z" fill="#263238"/>
<path d="M66.0747 141.784C65.6465 141.773 65.2377 141.603 64.9279 141.308C64.618 141.012 64.4294 140.611 64.3987 140.184L58.9587 27.156C58.949 26.9497 58.9812 26.7435 59.0534 26.55C59.1255 26.3565 59.2362 26.1797 59.3786 26.0301C59.5211 25.8806 59.6923 25.7614 59.8821 25.6799C60.0719 25.5985 60.2762 25.5563 60.4827 25.556H118.615C119.043 25.565 119.453 25.7342 119.764 26.0304C120.074 26.3265 120.262 26.7281 120.291 27.156L125.739 140.184C125.748 140.39 125.716 140.596 125.644 140.789C125.573 140.982 125.462 141.159 125.32 141.308C125.178 141.458 125.007 141.577 124.818 141.659C124.629 141.741 124.425 141.783 124.219 141.784H66.0747Z" fill="#FA1239"/>
<path opacity="0.1" d="M66.0468 140.984C65.833 140.977 65.6294 140.891 65.4745 140.744C65.3196 140.596 65.2244 140.397 65.2068 140.184L59.7588 27.156C59.7551 27.0533 59.7719 26.9509 59.8082 26.8547C59.8446 26.7586 59.8998 26.6707 59.9706 26.5962C60.0414 26.5217 60.1263 26.462 60.2205 26.4208C60.3146 26.3796 60.416 26.3575 60.5188 26.356H118.651C118.865 26.3622 119.069 26.4474 119.224 26.5951C119.379 26.7427 119.474 26.9425 119.491 27.156L124.939 140.184C124.943 140.287 124.926 140.389 124.889 140.485C124.853 140.581 124.798 140.669 124.727 140.744C124.656 140.818 124.571 140.878 124.477 140.919C124.383 140.96 124.282 140.982 124.179 140.984H66.0468Z" fill="black"/>
<g opacity="0.3">
<path d="M83.5908 134.488H72.0748C71.7587 134.484 71.4557 134.361 71.227 134.143C70.9983 133.924 70.861 133.628 70.8428 133.312L70.0028 115.828C69.9923 115.673 70.0139 115.518 70.0662 115.373C70.1185 115.227 70.2003 115.093 70.3066 114.981C70.4129 114.868 70.5414 114.778 70.6839 114.718C70.8264 114.657 70.9799 114.626 71.1348 114.628H82.6708C82.9862 114.631 83.2887 114.753 83.5168 114.971C83.7449 115.189 83.8815 115.485 83.8988 115.8L84.7268 133.288C84.7367 133.443 84.7146 133.598 84.6619 133.744C84.6091 133.889 84.5269 134.023 84.4203 134.135C84.3137 134.248 84.185 134.338 84.0423 134.398C83.8996 134.459 83.7459 134.489 83.5908 134.488ZM71.1188 115.036C71.019 115.035 70.9201 115.055 70.8281 115.093C70.736 115.132 70.6526 115.189 70.5828 115.26C70.5148 115.333 70.4622 115.42 70.4278 115.514C70.3935 115.608 70.3782 115.708 70.3828 115.808L71.2268 133.288C71.238 133.502 71.3302 133.704 71.4847 133.852C71.6392 134.001 71.8445 134.085 72.0588 134.088H83.5908C83.6911 134.089 83.7905 134.069 83.8827 134.03C83.975 133.99 84.0582 133.932 84.1273 133.86C84.1963 133.787 84.2496 133.701 84.2839 133.607C84.3182 133.512 84.3328 133.412 84.3268 133.312L83.4828 115.828C83.4726 115.614 83.3813 115.412 83.2274 115.264C83.0736 115.115 82.8688 115.031 82.6548 115.028L71.1188 115.036Z" fill="#FAFAFA"/>
<path d="M82.5029 119.096H71.6749C71.6218 119.096 71.5709 119.075 71.5334 119.037C71.4959 119 71.4749 118.949 71.4749 118.896C71.4749 118.843 71.4959 118.792 71.5334 118.755C71.5709 118.717 71.6218 118.696 71.6749 118.696H82.5149C82.5679 118.696 82.6188 118.717 82.6563 118.755C82.6938 118.792 82.7149 118.843 82.7149 118.896C82.7149 118.949 82.6938 119 82.6563 119.037C82.6188 119.075 82.5679 119.096 82.5149 119.096H82.5029Z" fill="#FAFAFA"/>
<path d="M82.6146 121.356H71.7706C71.7178 121.355 71.6676 121.334 71.6303 121.296C71.593 121.259 71.5716 121.209 71.5706 121.156C71.5706 121.103 71.5916 121.052 71.6291 121.015C71.6666 120.977 71.7175 120.956 71.7706 120.956H82.6146C82.6676 120.956 82.7185 120.977 82.756 121.015C82.7935 121.052 82.8146 121.103 82.8146 121.156C82.8135 121.209 82.7921 121.259 82.7548 121.296C82.7176 121.334 82.6673 121.355 82.6146 121.356Z" fill="#FAFAFA"/>
<path d="M82.7227 123.616H71.8787C71.826 123.615 71.7757 123.594 71.7384 123.556C71.7011 123.519 71.6797 123.469 71.6787 123.416C71.6787 123.363 71.6998 123.312 71.7373 123.275C71.7748 123.237 71.8257 123.216 71.8787 123.216H82.7227C82.7758 123.216 82.8266 123.237 82.8641 123.275C82.9016 123.312 82.9227 123.363 82.9227 123.416C82.9227 123.469 82.9016 123.52 82.8641 123.557C82.8266 123.595 82.7758 123.616 82.7227 123.616Z" fill="#FAFAFA"/>
<path d="M82.8308 125.876H71.9908C71.9377 125.876 71.8869 125.855 71.8494 125.817C71.8118 125.78 71.7908 125.729 71.7908 125.676C71.7908 125.623 71.8118 125.572 71.8494 125.535C71.8869 125.497 71.9377 125.476 71.9908 125.476H82.8308C82.8838 125.476 82.9347 125.497 82.9722 125.535C83.0097 125.572 83.0308 125.623 83.0308 125.676C83.0308 125.729 83.0097 125.78 82.9722 125.817C82.9347 125.855 82.8838 125.876 82.8308 125.876Z" fill="#FAFAFA"/>
<path d="M82.9387 128.136H72.0987C72.0456 128.136 71.9948 128.115 71.9573 128.077C71.9198 128.04 71.8987 127.989 71.8987 127.936C71.8987 127.883 71.9198 127.832 71.9573 127.795C71.9948 127.757 72.0456 127.736 72.0987 127.736H82.9387C82.9917 127.736 83.0426 127.757 83.0801 127.795C83.1176 127.832 83.1387 127.883 83.1387 127.936C83.1387 127.989 83.1176 128.04 83.0801 128.077C83.0426 128.115 82.9917 128.136 82.9387 128.136Z" fill="#FAFAFA"/>
<path d="M80.8268 130.396H72.2068C72.1538 130.396 72.1029 130.375 72.0654 130.337C72.0279 130.3 72.0068 130.249 72.0068 130.196C72.0068 130.143 72.0279 130.092 72.0654 130.055C72.1029 130.017 72.1538 129.996 72.2068 129.996H80.8268C80.8799 129.996 80.9307 130.017 80.9683 130.055C81.0058 130.092 81.0268 130.143 81.0268 130.196C81.0258 130.249 81.0044 130.299 80.9671 130.336C80.9298 130.374 80.8796 130.395 80.8268 130.396Z" fill="#FAFAFA"/>
</g>
<g opacity="0.3">
<path d="M90.8506 70.34L82.9426 71.604C82.6374 70.8514 82.2339 70.1426 81.7426 69.496C81.2693 68.9991 80.7095 68.5925 80.0906 68.296L80.3866 74.496C84.784 75.6533 87.7426 76.8746 89.2626 78.16C90.2317 78.9675 91.0181 79.9717 91.5697 81.1061C92.1214 82.2405 92.4258 83.4791 92.4626 84.74C92.5685 86.2156 92.2973 87.694 91.6746 89.036C91.0823 90.2879 90.2301 91.3992 89.1746 92.296C88.1915 93.1382 87.0545 93.782 85.8266 94.192C84.3853 94.6253 82.8914 94.8595 81.3866 94.888L81.4386 95.98C81.4507 96.1821 81.4211 96.3845 81.3516 96.5747C81.2821 96.7649 81.1742 96.9387 81.0346 97.0854C80.895 97.2321 80.7268 97.3485 80.5403 97.4274C80.3538 97.5063 80.1531 97.546 79.9506 97.544C79.53 97.5396 79.1267 97.3757 78.8222 97.0854C78.5178 96.795 78.3349 96.4 78.3106 95.98L78.2586 94.888C76.5031 94.7752 74.7697 94.4337 73.1026 93.872C71.8256 93.4105 70.6445 92.7176 69.6186 91.828C68.6823 91.0285 67.8895 90.0747 67.2746 89.008C66.658 87.8607 66.2095 86.6308 65.9426 85.356L74.5466 84.352C74.872 85.7626 75.272 86.7826 75.7466 87.412C76.343 88.1431 77.1093 88.7172 77.9786 89.084L77.6146 81.516C75.4838 80.9856 73.3975 80.2901 71.3746 79.436C70.066 78.7834 68.9412 77.814 68.1026 76.616C67.1225 75.2312 66.5804 73.5842 66.5466 71.888C66.4537 70.7176 66.6166 69.541 67.0241 68.44C67.4317 67.3389 68.0741 66.3398 68.9066 65.512C70.6026 63.8026 73.2026 62.856 76.7066 62.672L76.6786 62.116C76.6665 61.9139 76.6962 61.7114 76.7657 61.5212C76.8352 61.3311 76.9431 61.1572 77.0826 61.0105C77.2222 60.8638 77.3905 60.7474 77.577 60.6685C77.7634 60.5897 77.9642 60.55 78.1666 60.552C78.5873 60.5563 78.9906 60.7203 79.295 61.0106C79.5995 61.3009 79.7823 61.696 79.8066 62.116L79.8346 62.672C83.0346 62.872 85.516 63.6293 87.2786 64.944C89.0516 66.281 90.3124 68.1856 90.8506 70.34ZM76.9706 68.2C76.2574 68.3828 75.6135 68.7709 75.1186 69.316C74.7819 69.7679 74.6187 70.3258 74.6586 70.888C74.6798 71.491 74.8991 72.0702 75.2826 72.536C75.8167 73.0963 76.4926 73.5014 77.2386 73.708L76.9706 68.2ZM81.1186 89.288C82.3186 89.0213 83.1853 88.5733 83.7186 87.944C83.9746 87.6609 84.1722 87.33 84.2999 86.9703C84.4275 86.6105 84.4829 86.2291 84.4626 85.848C84.4219 85.1535 84.1388 84.4952 83.6626 83.988C83.1586 83.424 82.1986 82.896 80.7906 82.412L81.1186 89.288Z" fill="#FAFAFA"/>
</g>
<path opacity="0.2" d="M111.755 37.112H72.1548L76.0148 117.156C76.2032 120.435 77.6296 123.52 80.0057 125.788C82.3819 128.056 85.5304 129.337 88.8148 129.372H128.415L124.559 49.328C124.372 46.0474 122.946 42.9605 120.568 40.6923C118.191 38.4241 115.04 37.1442 111.755 37.112Z" fill="black"/>
<path d="M121.455 37.112H72.1667C75.4514 37.1462 78.6005 38.4268 80.9768 40.6947C83.3532 42.9626 84.7793 46.0485 84.9667 49.328L88.1148 114.488C88.3031 117.767 89.7296 120.852 92.1057 123.12C94.4818 125.388 97.6304 126.669 100.915 126.704H125.767C127.349 126.72 128.918 126.411 130.375 125.796C131.833 125.18 133.149 124.271 134.24 123.125C135.331 121.979 136.175 120.621 136.719 119.135C137.264 117.65 137.496 116.068 137.403 114.488L134.259 49.328C134.072 46.0474 132.646 42.9605 130.268 40.6923C127.891 38.4241 124.74 37.1442 121.455 37.112Z" fill="#FAFAFA"/>
<path d="M112.547 114.488C112.641 116.067 112.409 117.648 111.866 119.133C111.323 120.619 110.48 121.976 109.389 123.122C108.299 124.268 106.985 125.177 105.529 125.793C104.072 126.409 102.504 126.719 100.923 126.704H150.207C151.788 126.719 153.356 126.409 154.813 125.793C156.27 125.177 157.584 124.268 158.675 123.122C159.765 121.976 160.609 120.619 161.152 119.133C161.696 117.648 161.928 116.067 161.835 114.488H112.547Z" fill="#E6E6E6"/>
<path d="M128.395 77.556H93.563C93.3188 77.5533 93.0847 77.4581 92.908 77.2896C92.7313 77.1211 92.6251 76.8918 92.611 76.648C92.6044 76.5307 92.6219 76.4134 92.6625 76.3032C92.703 76.193 92.7657 76.0922 92.8466 76.0071C92.9275 75.9221 93.0251 75.8545 93.1331 75.8085C93.2412 75.7626 93.3575 75.7392 93.475 75.74H128.307C128.554 75.7385 128.792 75.8319 128.972 76.0009C129.152 76.1698 129.261 76.4014 129.275 76.648C129.282 76.7666 129.264 76.8853 129.222 76.9966C129.181 77.1079 129.117 77.2094 129.034 77.2948C128.951 77.3801 128.852 77.4473 128.742 77.4923C128.632 77.5372 128.514 77.5589 128.395 77.556Z" fill="#FA1239"/>
<path d="M128.667 83.2239H93.8347C93.5905 83.2213 93.3564 83.1261 93.1797 82.9576C93.003 82.7891 92.8969 82.5597 92.8827 82.316C92.8761 82.1987 92.8937 82.0814 92.9342 81.9711C92.9747 81.8609 93.0374 81.7602 93.1183 81.6751C93.1993 81.59 93.2968 81.5224 93.4049 81.4765C93.5129 81.4306 93.6293 81.4072 93.7467 81.4079H128.583C128.826 81.4116 129.059 81.5072 129.235 81.6757C129.411 81.8441 129.517 82.0729 129.531 82.316C129.537 82.4332 129.52 82.5505 129.479 82.6608C129.439 82.771 129.376 82.8717 129.295 82.9568C129.214 83.0419 129.117 83.1095 129.009 83.1554C128.9 83.2014 128.784 83.2247 128.667 83.2239Z" fill="#FA1239"/>
<path d="M128.943 88.888H94.1069C93.8627 88.8854 93.6287 88.7902 93.4519 88.6216C93.2752 88.4531 93.1691 88.2238 93.1549 87.98C93.1483 87.8627 93.1659 87.7454 93.2064 87.6352C93.2469 87.525 93.3096 87.4242 93.3905 87.3391C93.4715 87.2541 93.569 87.1865 93.6771 87.1405C93.7851 87.0946 93.9015 87.0712 94.0189 87.072H128.875C129.119 87.0746 129.353 87.1698 129.53 87.3383C129.707 87.5069 129.813 87.7362 129.827 87.98C129.834 88.0989 129.816 88.218 129.774 88.3296C129.732 88.4412 129.668 88.5429 129.584 88.6283C129.501 88.7136 129.401 88.7808 129.291 88.8255C129.181 88.8702 129.062 88.8915 128.943 88.888Z" fill="#FA1239"/>
<path d="M129.215 94.564H94.3828C94.1389 94.5604 93.9053 94.4649 93.7288 94.2966C93.5523 94.1282 93.4459 93.8994 93.4308 93.656C93.4242 93.5387 93.4418 93.4214 93.4823 93.3112C93.5228 93.201 93.5855 93.1002 93.6664 93.0151C93.7474 92.9301 93.8449 92.8625 93.953 92.8165C94.061 92.7706 94.1774 92.7472 94.2948 92.748H129.127C129.371 92.7506 129.605 92.8458 129.782 93.0143C129.958 93.1829 130.065 93.4122 130.079 93.656C130.085 93.7732 130.068 93.8906 130.027 94.0008C129.987 94.111 129.924 94.2118 129.843 94.2968C129.762 94.3819 129.665 94.4495 129.557 94.4954C129.449 94.5414 129.332 94.5647 129.215 94.564Z" fill="#FA1239"/>
<path d="M115.639 100.232H94.6548C94.4106 100.229 94.1765 100.134 93.9998 99.9656C93.8231 99.7971 93.7169 99.5677 93.7028 99.324C93.6962 99.2067 93.7137 99.0894 93.7542 98.9792C93.7948 98.8689 93.8574 98.7682 93.9384 98.6831C94.0193 98.5981 94.1169 98.5305 94.2249 98.4845C94.333 98.4386 94.4493 98.4152 94.5668 98.416H115.551C115.795 98.4186 116.029 98.5138 116.206 98.6823C116.382 98.8509 116.489 99.0802 116.503 99.324C116.509 99.4412 116.492 99.5586 116.451 99.6688C116.411 99.779 116.348 99.8797 116.267 99.9648C116.186 100.05 116.089 100.117 115.981 100.163C115.873 100.209 115.756 100.233 115.639 100.232Z" fill="#FA1239"/>
<path d="M118.059 65.8071C122.181 61.5848 121.93 54.6554 117.499 50.3299C113.068 46.0044 106.135 45.9207 102.013 50.143C97.8912 54.3653 98.1418 61.2947 102.573 65.6202C107.004 69.9457 113.937 70.0294 118.059 65.8071Z" fill="#FA1239"/>
<path d="M119.067 57.968C119.142 59.4544 118.838 60.9357 118.183 62.272C117.472 63.7049 116.372 64.9085 115.009 65.7448C113.645 66.581 112.074 67.0161 110.475 67C108.82 66.9875 107.197 66.5451 105.765 65.7163C104.333 64.8874 103.141 63.7005 102.307 62.272C101.528 60.9653 101.081 59.4874 101.007 57.968C100.937 56.8007 101.109 55.6316 101.511 54.5334C101.913 53.4352 102.536 52.4314 103.342 51.5843C104.148 50.7373 105.12 50.065 106.197 49.6094C107.274 49.1538 108.433 48.9246 109.603 48.936C112.03 48.9661 114.355 49.9146 116.111 51.5904C117.867 53.2662 118.923 55.5449 119.067 57.968Z" fill="white"/>
<path opacity="0.4" d="M118.183 62.272C117.472 63.7049 116.372 64.9085 115.009 65.7448C113.646 66.581 112.074 67.0161 110.475 67C108.82 66.9875 107.198 66.5451 105.766 65.7163C104.334 64.8874 103.142 63.7005 102.307 62.272C104.609 60.6924 107.339 59.8549 110.131 59.872C112.99 59.8773 115.787 60.7109 118.183 62.272Z" fill="#FA1239"/>
<path opacity="0.4" d="M112.832 57.7511C114.347 56.1987 114.256 53.6518 112.628 52.0623C111 50.4728 108.451 50.4427 106.936 51.9951C105.42 53.5474 105.512 56.0944 107.14 57.6838C108.768 59.2733 111.317 59.3034 112.832 57.7511Z" fill="#FA1239"/>
<path d="M143.579 141.984H140.643L140.347 135.176H143.287L143.579 141.984Z" fill="#B55B52"/>
<path opacity="0.2" d="M140.351 135.18L140.499 138.688H143.439L143.287 135.18H140.351Z" fill="black"/>
<path d="M168.591 134.008L165.799 134.92L162.283 128.908L165.079 127.996L168.591 134.008Z" fill="#B55B52"/>
<path opacity="0.2" d="M165.079 127.996L162.283 128.908L164.099 132.008L166.891 131.096L165.079 127.996Z" fill="black"/>
<path d="M153.515 43.656C153.879 44.1 154.187 44.496 154.503 44.932C154.819 45.368 155.119 45.784 155.419 46.216C156.011 47.084 156.579 47.972 157.111 48.888C158.218 50.7464 159.121 52.7192 159.803 54.772L159.871 54.972L159.903 55.076L159.947 55.24L160.027 55.568L160.071 55.868C160.118 56.2272 160.133 56.5901 160.115 56.952C160.078 57.5623 159.99 58.1684 159.851 58.764C159.598 59.831 159.262 60.8768 158.847 61.892C158.056 63.8379 157.098 65.7116 155.983 67.492L153.983 66.536C154.583 64.66 155.183 62.74 155.623 60.872C155.852 59.9715 156.026 59.0577 156.143 58.136C156.192 57.738 156.207 57.3365 156.187 56.936C156.181 56.7933 156.162 56.6514 156.131 56.512L156.111 56.44C156.104 56.4271 156.097 56.4137 156.091 56.4L156.059 56.324L155.995 56.168L155.727 55.54L155.427 54.916C155.227 54.516 155.007 54.084 154.787 53.668C154.331 52.844 153.839 52.024 153.327 51.208C152.815 50.392 152.271 49.608 151.727 48.808C151.183 48.008 150.587 47.208 150.047 46.484L153.515 43.656Z" fill="#B55B52"/>
<path d="M154.167 66.04L153.019 68.58H156.303C156.303 68.58 156.827 66.652 155.635 65.872L154.167 66.04Z" fill="#B55B52"/>
<path d="M153.403 71.436L156.451 70.848L156.303 68.58H153.019L153.403 71.436Z" fill="#B55B52"/>
<path d="M138.963 30.764C138.963 31.004 138.839 31.196 138.683 31.196C138.527 31.196 138.403 31.004 138.403 30.764C138.403 30.524 138.531 30.336 138.683 30.336C138.835 30.336 138.963 30.528 138.963 30.764Z" fill="#263238"/>
<path d="M138.875 31.196C138.593 31.9197 138.212 32.6009 137.743 33.22C137.905 33.3359 138.09 33.4153 138.285 33.4526C138.481 33.4899 138.682 33.4842 138.875 33.436V31.196Z" fill="#A02724"/>
<path d="M139.803 29.452C139.774 29.4523 139.745 29.4424 139.723 29.424C139.584 29.3192 139.422 29.2483 139.25 29.217C139.079 29.1858 138.902 29.195 138.735 29.244C138.701 29.2531 138.666 29.2495 138.635 29.2338C138.604 29.2181 138.58 29.1915 138.567 29.1592C138.555 29.1268 138.555 29.091 138.567 29.0586C138.58 29.0262 138.604 28.9996 138.635 28.984C138.846 28.9171 139.069 28.9018 139.287 28.9393C139.505 28.9769 139.711 29.0663 139.887 29.2C139.916 29.2223 139.936 29.2551 139.942 29.2916C139.948 29.3281 139.94 29.3655 139.919 29.396C139.905 29.4135 139.887 29.4276 139.867 29.4373C139.847 29.447 139.825 29.452 139.803 29.452Z" fill="#263238"/>
<path d="M146.615 33.496C146.191 35.648 145.771 39.588 147.275 41.02C147.275 41.02 146.687 43.2 142.695 43.2C138.295 43.2 140.595 41.02 140.595 41.02C142.995 40.448 142.931 38.672 142.511 37L146.615 33.496Z" fill="#B55B52"/>
<path d="M147.851 41.768C148.167 41.08 148.515 40.288 147.795 40.04C146.995 39.768 142.691 39.492 141.199 40.004C141.003 40.0583 140.819 40.1512 140.659 40.2771C140.499 40.4029 140.366 40.5594 140.267 40.7373C140.168 40.9152 140.105 41.1111 140.083 41.3134C140.06 41.5157 140.078 41.7206 140.135 41.916L147.851 41.768Z" fill="#263238"/>
<path d="M165.195 135.62C164.979 135.828 164.735 135.996 164.551 135.968C164.493 135.956 164.44 135.927 164.399 135.884C164.358 135.841 164.332 135.787 164.323 135.728C164.311 135.683 164.309 135.635 164.317 135.589C164.325 135.542 164.344 135.498 164.371 135.46C164.611 135.088 165.571 134.928 165.623 134.924C165.636 134.922 165.649 134.924 165.661 134.929C165.673 134.934 165.683 134.942 165.691 134.952C165.699 134.963 165.703 134.976 165.703 134.99C165.703 135.004 165.699 135.017 165.691 135.028C165.547 135.242 165.381 135.441 165.195 135.62ZM164.543 135.468C164.522 135.487 164.503 135.509 164.487 135.532C164.471 135.555 164.46 135.581 164.455 135.609C164.45 135.637 164.452 135.665 164.459 135.692C164.491 135.816 164.551 135.828 164.571 135.828C164.775 135.86 165.211 135.428 165.479 135.092C165.143 135.147 164.823 135.275 164.543 135.468Z" fill="#FA1239"/>
<path d="M165.675 135.04L165.643 135.06C165.311 135.148 164.443 135.092 164.259 134.812C164.232 134.767 164.22 134.715 164.226 134.662C164.231 134.61 164.254 134.562 164.291 134.524C164.325 134.483 164.367 134.45 164.415 134.426C164.462 134.402 164.514 134.388 164.567 134.384C165.007 134.352 165.643 134.916 165.671 134.94C165.681 134.948 165.688 134.959 165.691 134.971C165.695 134.983 165.695 134.996 165.691 135.008C165.69 135.02 165.684 135.032 165.675 135.04ZM164.423 134.592L164.399 134.616C164.343 134.684 164.367 134.72 164.375 134.736C164.483 134.9 165.091 134.992 165.467 134.948C165.218 134.723 164.91 134.576 164.579 134.524C164.523 134.528 164.471 134.552 164.431 134.592H164.423Z" fill="#FA1239"/>
<path d="M139.459 142.132C139.083 142.132 138.719 142.08 138.599 141.912C138.567 141.868 138.549 141.815 138.549 141.76C138.549 141.705 138.567 141.652 138.599 141.608C138.623 141.567 138.654 141.532 138.692 141.503C138.73 141.475 138.773 141.455 138.819 141.444C139.307 141.312 140.335 141.896 140.379 141.924C140.392 141.931 140.402 141.941 140.407 141.954C140.413 141.968 140.415 141.982 140.411 141.996C140.409 142.009 140.403 142.022 140.394 142.032C140.384 142.042 140.372 142.049 140.359 142.052C140.062 142.104 139.761 142.131 139.459 142.132ZM138.995 141.564C138.95 141.558 138.904 141.558 138.859 141.564C138.831 141.57 138.804 141.581 138.781 141.597C138.757 141.614 138.738 141.635 138.723 141.66C138.675 141.748 138.691 141.792 138.723 141.816C138.859 142.004 139.603 142.008 140.147 141.932C139.791 141.736 139.399 141.611 138.995 141.564Z" fill="#FA1239"/>
<path d="M140.347 142.052H140.319C139.967 141.892 139.263 141.252 139.315 140.924C139.315 140.844 139.383 140.748 139.575 140.728C139.646 140.72 139.719 140.726 139.787 140.747C139.856 140.768 139.92 140.802 139.975 140.848C140.347 141.156 140.427 141.948 140.431 141.98C140.431 141.992 140.428 142.004 140.422 142.016C140.417 142.027 140.409 142.036 140.399 142.044C140.391 142.049 140.383 142.052 140.374 142.053C140.365 142.055 140.356 142.054 140.347 142.052ZM139.631 140.852H139.591C139.463 140.852 139.455 140.912 139.455 140.928C139.423 141.128 139.899 141.628 140.255 141.844C140.22 141.508 140.08 141.192 139.855 140.94C139.791 140.889 139.712 140.861 139.631 140.86V140.852Z" fill="#FA1239"/>
<path d="M165.555 134.596L167.955 132.312C167.997 132.271 168.052 132.245 168.11 132.24C168.168 132.235 168.227 132.251 168.275 132.284L170.499 133.772C170.553 133.808 170.598 133.856 170.63 133.913C170.663 133.969 170.682 134.032 170.687 134.096C170.691 134.161 170.681 134.226 170.657 134.286C170.633 134.346 170.595 134.4 170.547 134.444C169.703 135.244 169.251 135.568 168.203 136.568C167.555 137.188 165.627 139.288 164.735 140.144C163.843 141 162.883 140.224 163.171 139.796C164.467 137.872 165.275 136.028 165.347 135.056C165.36 134.883 165.434 134.72 165.555 134.596Z" fill="#263238"/>
<path d="M140.659 141.644H143.859C143.917 141.644 143.973 141.663 144.019 141.7C144.064 141.736 144.095 141.787 144.107 141.844L144.687 144.456C144.702 144.519 144.702 144.584 144.687 144.647C144.673 144.71 144.644 144.768 144.604 144.818C144.563 144.869 144.512 144.909 144.454 144.936C144.395 144.963 144.331 144.977 144.267 144.976C143.107 144.976 141.435 144.892 139.979 144.892C138.279 144.892 136.811 144.984 134.815 144.984C133.615 144.984 133.275 143.764 133.779 143.652C136.075 143.152 137.955 143.096 139.939 141.872C140.153 141.73 140.402 141.651 140.659 141.644Z" fill="#263238"/>
<path d="M136.475 47.688C135.307 49.408 134.103 51.016 132.807 52.604C131.506 54.2114 130.116 55.7444 128.643 57.196L128.075 57.748L127.931 57.884L127.827 57.98L127.675 58.088C127.487 58.2399 127.284 58.3738 127.071 58.488C126.396 58.8442 125.653 59.0528 124.891 59.1C123.729 59.1688 122.562 59.0718 121.427 58.812C119.37 58.3583 117.376 57.6572 115.487 56.724L116.223 54.644C118.096 55.0184 119.99 55.2776 121.895 55.42C122.732 55.4861 123.574 55.4512 124.403 55.316C124.641 55.2804 124.868 55.1915 125.067 55.056C125.087 55.056 125.067 55.032 125.067 55.032L125.099 55L125.215 54.868L125.691 54.348C126.939 52.924 128.151 51.404 129.327 49.852C130.503 48.3 131.683 46.708 132.807 45.156L136.475 47.688Z" fill="#B55B52"/>
<path d="M152.539 41.688C155.291 42.32 158.451 49.828 158.451 49.828L152.919 53.62C151.545 51.6456 150.327 49.5673 149.275 47.404C147.635 43.968 149.723 41.04 152.539 41.688Z" fill="#FA1239"/>
<path opacity="0.3" d="M150.563 46.488L153.179 53.452L152.919 53.632C152.919 53.632 151.787 52.032 150.563 49.9V46.488Z" fill="black"/>
<path d="M136.075 41.836C136.075 41.836 132.947 45.368 135.903 67.236H151.619C151.727 64.836 150.211 53.052 152.539 41.684C150.8 41.3496 149.042 41.1278 147.275 41.02C145.05 40.8919 142.82 40.8919 140.595 41.02C139.069 41.1737 137.558 41.4465 136.075 41.836Z" fill="#FA1239"/>
<path opacity="0.3" d="M137.819 48.16C137.41 50.6415 136.338 52.9663 134.715 54.888C134.651 53.48 134.627 52.216 134.631 51.084L137.819 48.16Z" fill="black"/>
<path d="M139.175 44.22C139.575 47 134.079 54.108 134.079 54.108L128.571 50.316C128.571 50.316 130.099 46.4 132.671 43.832C135.611 40.888 138.755 41.192 139.175 44.22Z" fill="#FA1239"/>
<path d="M116.603 54.888L114.447 52.66L112.147 55.624C112.147 55.624 113.899 57.316 115.983 56.824L116.603 54.888Z" fill="#B55B52"/>
<path d="M111.487 51.42L110.499 54.532L112.147 55.612L114.447 52.648L111.487 51.42Z" fill="#B55B52"/>
<path d="M146.875 30.264C146.695 33.172 146.739 34.888 145.275 36.38C143.063 38.628 139.471 37.296 138.779 34.38C138.151 31.764 138.551 27.444 141.399 26.288C142.026 26.0302 142.709 25.9372 143.383 26.0177C144.056 26.0983 144.698 26.3498 145.246 26.7482C145.795 27.1467 146.233 27.6789 146.518 28.2943C146.803 28.9096 146.926 29.5877 146.875 30.264Z" fill="#B55B52"/>
<path d="M149.407 24.188C150.303 25.012 149.923 25.932 149.455 26.104C150.907 26.404 151.119 27.56 150.355 30C149.627 32.336 147.863 35.468 145.659 35.66C142.347 35.948 141.379 32.496 141.355 29.072C139.483 29.188 140.291 27.528 137.991 27.912C135.991 28.244 136.743 26.684 135.043 26.004C133.071 25.204 133.467 22.184 135.307 23.052C135.307 23.052 134.455 23.612 135.447 24.14C136.439 24.668 136.343 23.448 138.307 23.3C140.271 23.152 140.499 24.832 142.795 23.82C145.675 22.548 147.567 22.488 149.407 24.188Z" fill="#263238"/>
<path d="M148.303 26.088C148.434 25.8785 148.629 25.7167 148.858 25.6267C149.088 25.5366 149.341 25.523 149.579 25.588C150.479 25.78 150.551 26.176 151.115 26.124C151.679 26.072 151.475 26.672 151.475 26.672C151.475 26.672 151.323 26.22 150.643 26.472C149.963 26.724 149.519 26.108 149.227 26.384C148.935 26.66 148.303 26.088 148.303 26.088Z" fill="#263238"/>
<path d="M142.923 31.056C142.795 31.7691 142.433 32.4193 141.895 32.904C141.183 33.536 140.567 33.028 140.543 32.164C140.543 31.384 140.875 30.112 141.695 29.808C142.515 29.504 143.071 30.192 142.923 31.056Z" fill="#B55B52"/>
<path d="M141.475 67.236C141.475 67.236 144.811 89.688 146.643 98.088C148.643 107.288 162.583 131.768 162.583 131.768L167.703 130.104C167.703 130.104 156.603 108.048 155.459 98.924C154.215 89.024 151.619 67.22 151.619 67.22L141.475 67.236Z" fill="#263238"/>
<path d="M161.151 130.168C161.131 130.168 162.323 131.96 162.323 131.96L168.075 130.088L167.399 128.368L161.151 130.168Z" fill="#FA1239"/>
<path opacity="0.3" d="M143.583 75.236C147.439 75.992 147.031 90.372 146.567 97.768C145.455 92.54 143.827 82.48 142.715 75.34C142.984 75.2074 143.29 75.1707 143.583 75.236Z" fill="black"/>
<path d="M135.903 67.236C135.903 67.236 135.503 89.208 135.815 98.168C136.147 107.488 139.415 138.008 139.415 138.008H144.395C144.395 138.008 144.575 108.032 144.795 98.88C145.035 88.88 146.239 67.236 146.239 67.236H135.903Z" fill="#263238"/>
<path d="M138.447 136.024C138.423 136.024 138.727 138.092 138.727 138.092H144.783L144.947 136.248L138.447 136.024Z" fill="#FA1239"/>
</svg>
