         <svg width="201" height="150" viewBox="0 0 201 150" fill="none" xmlns="http://www.w3.org/2000/svg">
<path d="M200.375 131.448H0.375V131.548H200.375V131.448Z" fill="#E0E0E0"/>
<path d="M48.235 135.684H34.739V135.784H48.235V135.684Z" fill="#E0E0E0"/>
<path d="M31.8029 135.732H23.7949V135.832H31.8029V135.732Z" fill="#E0E0E0"/>
<path d="M121.623 133.588H83.707V133.688H121.623V133.588Z" fill="#E0E0E0"/>
<path d="M67.487 138.52H55.399V138.62H67.487V138.52Z" fill="#E0E0E0"/>
<path d="M165.843 134.964H134.375V135.064H165.843V134.964Z" fill="#E0E0E0"/>
<path d="M95.1749 113.608H17.9389C17.3339 113.607 16.754 113.366 16.3265 112.938C15.899 112.509 15.6589 111.929 15.6589 111.324V2.75198C15.6642 2.15039 15.9066 1.57517 16.3335 1.15126C16.7604 0.727359 17.3373 0.489007 17.9389 0.487976H95.1749C95.7807 0.487976 96.3616 0.728611 96.79 1.15694C97.2183 1.58528 97.4589 2.16622 97.4589 2.77198V111.324C97.4589 111.93 97.2183 112.511 96.79 112.939C96.3616 113.367 95.7807 113.608 95.1749 113.608ZM17.9389 0.567976C17.3604 0.569036 16.8059 0.799602 16.3972 1.20907C15.9885 1.61853 15.7589 2.17344 15.7589 2.75198V111.324C15.7589 111.903 15.9885 112.457 16.3972 112.867C16.8059 113.276 17.3604 113.507 17.9389 113.508H95.1749C95.7538 113.507 96.3087 113.276 96.7181 112.867C97.1274 112.458 97.3579 111.903 97.3589 111.324V2.75198C97.3579 2.17307 97.1274 1.61817 96.7181 1.20882C96.3087 0.799472 95.7538 0.569034 95.1749 0.567976H17.9389Z" fill="#E0E0E0"/>
<path d="M181.699 113.608H104.459C103.854 113.607 103.273 113.366 102.845 112.938C102.417 112.51 102.176 111.929 102.175 111.324V2.75198C102.181 2.15002 102.425 1.57481 102.852 1.15101C103.28 0.72722 103.857 0.488995 104.459 0.487976H181.699C182.3 0.490058 182.876 0.728876 183.302 1.15267C183.728 1.57646 183.97 2.15108 183.975 2.75198V111.324C183.975 111.928 183.736 112.508 183.309 112.936C182.882 113.364 182.303 113.606 181.699 113.608ZM104.459 0.567976C103.88 0.569034 103.325 0.799472 102.916 1.20882C102.507 1.61817 102.276 2.17307 102.275 2.75198V111.324C102.276 111.903 102.507 112.458 102.916 112.867C103.325 113.276 103.88 113.507 104.459 113.508H181.699C182.278 113.507 182.833 113.276 183.242 112.867C183.652 112.458 183.882 111.903 183.883 111.324V2.75198C183.882 2.17307 183.652 1.61817 183.242 1.20882C182.833 0.799472 182.278 0.569034 181.699 0.567976H104.459Z" fill="#E0E0E0"/>
<path d="M168.863 84.8H158.671V131.448H168.863V84.8Z" fill="#E0E0E0"/>
<path d="M166.927 131.448H168.863V125.94H164.899L166.927 131.448Z" fill="#F0F0F0"/>
<path d="M130.775 84.8H120.583V131.448H130.775V84.8Z" fill="#E0E0E0"/>
<path d="M168.863 84.8H129.083V128.068H168.863V84.8Z" fill="#F0F0F0"/>
<path d="M149.623 106.88V121.184H167.363V106.88H149.623Z" fill="#E0E0E0"/>
<path d="M130.587 106.88V121.184H148.327V106.88H130.587Z" fill="#E0E0E0"/>
<path d="M141.211 108.424H137.699C136.945 108.424 136.199 108.27 135.506 107.971C134.814 107.673 134.189 107.236 133.671 106.688H145.239C144.721 107.236 144.097 107.673 143.404 107.971C142.712 108.27 141.965 108.424 141.211 108.424Z" fill="#F0F0F0"/>
<path d="M160.427 108.424H156.919C156.164 108.424 155.417 108.27 154.724 107.971C154.031 107.673 153.406 107.236 152.887 106.688H164.459C163.94 107.236 163.315 107.672 162.622 107.971C161.928 108.269 161.182 108.423 160.427 108.424Z" fill="#F0F0F0"/>
<path d="M149.623 88.056V102.36H167.363V88.056H149.623Z" fill="#E0E0E0"/>
<path d="M130.583 88.06V102.364H148.323V88.06H130.583Z" fill="#E0E0E0"/>
<path d="M141.211 89.6H137.699C136.945 89.5996 136.2 89.4459 135.507 89.1481C134.815 88.8504 134.19 88.4148 133.671 87.868H145.239C144.72 88.4148 144.096 88.8504 143.403 89.1481C142.711 89.4459 141.965 89.5996 141.211 89.6Z" fill="#F0F0F0"/>
<path d="M160.427 89.6H156.919C156.165 89.5997 155.418 89.446 154.725 89.1483C154.032 88.8505 153.407 88.4149 152.887 87.868H164.459C163.939 88.4146 163.314 88.8499 162.621 89.1476C161.928 89.4453 161.181 89.5992 160.427 89.6Z" fill="#F0F0F0"/>
<path d="M131.019 131.448H129.083V125.94H133.051L131.019 131.448Z" fill="#F0F0F0"/>
<path d="M138.923 77.492C138.923 79.276 140.163 80.516 138.379 80.516C136.595 80.516 132.467 79.276 132.467 77.492C132.467 76.6359 132.807 75.8148 133.413 75.2094C134.018 74.6041 134.839 74.264 135.695 74.264C136.551 74.264 137.372 74.6041 137.978 75.2094C138.583 75.8148 138.923 76.6359 138.923 77.492Z" fill="#E0E0E0"/>
<path d="M144.447 79.032C144.447 80.812 145.687 82.056 143.903 82.056C142.119 82.056 137.975 80.812 137.975 79.032C137.975 78.1758 138.315 77.3548 138.921 76.7494C139.526 76.144 140.347 75.804 141.203 75.804C142.059 75.804 142.88 76.144 143.486 76.7494C144.091 77.3548 144.431 78.1758 144.431 79.032H144.447Z" fill="#E0E0E0"/>
<path d="M149.739 78.088C149.739 79.868 150.979 81.112 149.195 81.112C147.411 81.112 143.283 79.868 143.283 78.088C143.283 77.2319 143.623 76.4108 144.228 75.8054C144.834 75.2001 145.655 74.86 146.511 74.86C147.367 74.86 148.188 75.2001 148.794 75.8054C149.399 76.4108 149.739 77.2319 149.739 78.088Z" fill="#E0E0E0"/>
<path d="M130.491 78.488C130.491 78.488 130.755 84.784 140.871 84.784C150.987 84.784 151.247 78.488 151.247 78.488H130.491Z" fill="#E6E6E6"/>
<path d="M169.287 8.08398H117.995V64.844H169.287V8.08398Z" fill="#E0E0E0"/>
<path d="M174.775 6.33199H114.675C114.608 6.33146 114.542 6.34421 114.479 6.3695C114.417 6.39479 114.361 6.43213 114.313 6.47936C114.266 6.52658 114.228 6.58276 114.202 6.64465C114.176 6.70655 114.163 6.77294 114.163 6.83998C114.163 6.97578 114.217 7.10601 114.313 7.20202C114.409 7.29804 114.539 7.35199 114.675 7.35199H174.775C174.842 7.35199 174.909 7.33872 174.97 7.31294C175.032 7.28716 175.088 7.24938 175.136 7.20179C175.183 7.15419 175.22 7.09771 175.246 7.03562C175.271 6.97352 175.284 6.90703 175.283 6.83998C175.283 6.70525 175.23 6.57604 175.134 6.48077C175.039 6.38551 174.91 6.33199 174.775 6.33199Z" fill="#E0E0E0"/>
<path d="M171.463 8.08398H119.011V64.844H171.463V8.08398Z" fill="#E6E6E6"/>
<path d="M169.287 64.844H117.995V68.888H169.287V64.844Z" fill="#E0E0E0"/>
<path d="M175.087 64.844H122.635V68.888H175.087V64.844Z" fill="#E6E6E6"/>
<path d="M168.415 61.792V11.128L122.059 11.128V61.792H168.415Z" fill="#F5F5F5"/>
<path d="M132.583 61.796L150.467 11.132H158.907L141.023 61.796H132.583Z" fill="#FAFAFA"/>
<path d="M142.835 61.796L160.719 11.132H164.011L146.127 61.796H142.835Z" fill="#FAFAFA"/>
<path d="M168.415 61.796V11.132H168.027V61.796H168.415Z" fill="#E0E0E0"/>
<path d="M122.095 5.41998H116.851V54.308H122.095V5.41998Z" fill="#EBEBEB"/>
<path d="M124.135 5.41998H120.051V54.308H124.135V5.41998Z" fill="#E0E0E0"/>
<path d="M127.339 5.41998H122.095V54.308H127.339V5.41998Z" fill="#EBEBEB"/>
<path d="M129.379 5.41998H125.295V54.308H129.379V5.41998Z" fill="#E0E0E0"/>
<path d="M132.583 5.41998H127.339V54.308H132.583V5.41998Z" fill="#EBEBEB"/>
<path d="M166.463 5.41998H163.443V54.308H166.463V5.41998Z" fill="#EBEBEB"/>
<path d="M167.643 5.41998H165.287V54.308H167.643V5.41998Z" fill="#E0E0E0"/>
<path d="M169.483 5.41998H166.463V54.308H169.483V5.41998Z" fill="#EBEBEB"/>
<path d="M170.663 5.41998H168.307V54.308H170.663V5.41998Z" fill="#E0E0E0"/>
<path d="M172.507 5.41998H169.487V54.308H172.507V5.41998Z" fill="#EBEBEB"/>
<path d="M44.523 20.744H39.059V35.652H44.523V20.744Z" fill="#E6E6E6"/>
<path d="M31.5911 39.064L29.8551 43.8H31.5911L42.2151 39.064H31.5911Z" fill="#F0F0F0"/>
<path d="M29.8551 39.064V43.8L40.4831 39.064H29.8551Z" fill="#E0E0E0"/>
<path d="M73.2551 39.064L71.5231 43.8H73.2551L83.8831 39.064H73.2551Z" fill="#F0F0F0"/>
<path d="M71.5231 39.064V43.8L82.1471 39.064H71.5231Z" fill="#E0E0E0"/>
<path d="M22.059 39.288H33.615V35.684H22.059V39.288Z" fill="#E0E0E0"/>
<path d="M91.063 35.684H33.611V39.288H91.063V35.684Z" fill="#F0F0F0"/>
<path d="M53.623 35.652H40.323L38.679 17.584H51.979L53.623 35.652Z" fill="#E0E0E0"/>
<path d="M54.3109 35.652H41.0149L39.3669 17.584H52.6669L54.3109 35.652Z" fill="#F0F0F0"/>
<path d="M42.831 33.652L41.551 19.584H50.851L52.131 33.652H42.831Z" fill="#FAFAFA"/>
<path d="M59.679 29.784C59.679 29.784 59.923 35.652 69.351 35.652C78.779 35.652 79.023 29.784 79.023 29.784H59.679Z" fill="#E6E6E6"/>
<path d="M49.879 130.152H35.307C34.977 130.159 34.6537 130.059 34.3846 129.868C34.1155 129.677 33.9149 129.405 33.8123 129.091C33.7097 128.777 33.7105 128.439 33.8147 128.126C33.9189 127.813 34.1209 127.542 34.391 127.352L34.627 127.672C34.435 127.816 34.293 128.016 34.221 128.245C34.1491 128.473 34.1508 128.719 34.2259 128.947C34.3011 129.174 34.4459 129.373 34.6399 129.513C34.8338 129.654 35.0672 129.731 35.307 129.732H49.879C50.7719 129.731 51.6279 129.376 52.2593 128.744C52.8907 128.113 53.2459 127.257 53.247 126.364V83.24C53.248 82.2682 53.6343 81.3364 54.3211 80.6489C55.0078 79.9613 55.9392 79.5741 56.911 79.572H61.271V79.972H56.911C56.0453 79.9741 55.2157 80.3192 54.6039 80.9317C53.9921 81.5442 53.648 82.3742 53.647 83.24V126.384C53.6449 127.383 53.2472 128.34 52.541 129.046C51.8348 129.752 50.8777 130.15 49.879 130.152Z" fill="#E0E0E0"/>
<path d="M98.5549 80.396H72.3109V131.448H98.5549V80.396Z" fill="#E0E0E0"/>
<path d="M99.5429 80.396H97.3789V131.448H99.5429V80.396Z" fill="#EBEBEB"/>
<path d="M48.0269 84.224H100.211V80.396H48.0269V84.224Z" fill="#EBEBEB"/>
<path d="M47.7151 80.396H21.4711V131.448H47.7151V80.396Z" fill="#E0E0E0"/>
<path d="M48.6989 80.396H46.5349V131.448H48.6989V80.396Z" fill="#EBEBEB"/>
<path d="M39.5869 65.156H64.0429L67.5869 79.596H43.1309L39.5869 65.156Z" fill="#E0E0E0"/>
<path d="M43.1311 79.596L43.2311 80.396H67.6871L67.5911 79.596H43.1311Z" fill="#E0E0E0"/>
<path d="M40.343 65.156H64.799L68.343 79.596H43.887L40.343 65.156Z" fill="#F0F0F0"/>
<path d="M44.403 78.936L41.183 65.816H64.279L67.499 78.936H44.403Z" fill="#FAFAFA"/>
<path d="M50.259 79.596L50.355 80.396H77.287L77.187 79.596H50.259Z" fill="#F0F0F0"/>
<path d="M31.2029 76.756C31.2029 76.756 27.6029 70.552 32.5989 65.612C32.5989 65.612 33.8989 66.464 33.8789 67.612C33.8589 68.76 32.4869 69.044 32.7789 70.012C33.0709 70.98 34.3789 71.9 33.5229 72.688C32.6669 73.476 33.6589 74.176 33.6029 75.144C33.5469 76.112 31.2029 76.756 31.2029 76.756Z" fill="#F0F0F0"/>
<path d="M31.4749 77.324C31.4749 77.324 32.9349 70.3 26.6389 67.188C26.6389 67.188 25.6709 68.408 26.0509 69.484C26.4309 70.56 27.8269 70.4 27.8469 71.4C27.8669 72.4 26.9269 73.692 27.9869 74.172C29.0469 74.652 28.3229 75.628 28.6829 76.524C29.0429 77.42 31.4749 77.324 31.4749 77.324Z" fill="#F0F0F0"/>
<path d="M25.975 75.768C25.975 75.768 26.095 80.396 30.683 80.396C35.271 80.396 35.379 75.768 35.379 75.768H25.975Z" fill="#E0E0E0"/>
<path d="M90.671 131.448H89.759L87.147 118.584L86.691 116.332L83.843 102.332H72.927L67.011 131.448H66.099L72.127 101.776C72.1466 101.675 72.201 101.584 72.2806 101.519C72.3603 101.454 72.4602 101.419 72.563 101.42H84.207C84.3098 101.419 84.4097 101.454 84.4894 101.519C84.569 101.584 84.6234 101.675 84.643 101.776L87.143 114.088L87.603 116.34L90.671 131.448Z" fill="#EBEBEB"/>
<path d="M108.195 131.448H107.279L101.363 102.316H90.451L87.6031 116.34L87.147 118.584L84.535 131.448H83.623L86.691 116.332L87.143 114.088L89.647 101.776C89.6667 101.675 89.721 101.584 89.8007 101.519C89.8803 101.454 89.9802 101.419 90.0831 101.42H101.727C101.83 101.42 101.93 101.455 102.01 101.52C102.091 101.585 102.146 101.675 102.167 101.776L108.195 131.448Z" fill="#EBEBEB"/>
<path d="M81.291 101.868H101.347C103.187 101.866 104.953 101.144 106.267 99.8555C107.581 98.5672 108.337 96.8156 108.375 94.976L109.123 64.496C109.134 63.8165 109.009 63.1417 108.757 62.5108C108.504 61.8799 108.129 61.3055 107.652 60.8209C107.176 60.3364 106.608 59.9513 105.982 59.6881C105.355 59.425 104.683 59.2889 104.003 59.288H91.431C90.1726 59.2886 88.9583 59.752 88.0193 60.5899C87.0804 61.4278 86.4823 62.5817 86.339 63.832L81.291 101.868Z" fill="#E6E6E6"/>
<path d="M92.2269 101.868H70.8549C70.5897 101.868 70.3354 101.763 70.1478 101.575C69.9603 101.388 69.8549 101.133 69.8549 100.868V100.772C69.8549 100.043 70.1444 99.3442 70.6598 98.8288C71.1751 98.3135 71.8741 98.024 72.6029 98.024H92.2269V101.868Z" fill="#E6E6E6"/>
<path d="M100.375 149.512C143.208 149.512 177.931 147.485 177.931 144.984C177.931 142.483 143.208 140.456 100.375 140.456C57.542 140.456 22.819 142.483 22.819 144.984C22.819 147.485 57.542 149.512 100.375 149.512Z" fill="#F5F5F5"/>
<path d="M110.951 46.816L111.211 47.036C111.307 47.12 111.415 47.2 111.519 47.28C111.727 47.444 111.919 47.608 112.159 47.764C112.591 48.08 113.051 48.368 113.511 48.656C114.439 49.2279 115.412 49.7242 116.419 50.14C117.423 50.5675 118.456 50.9205 119.511 51.196C119.775 51.268 120.047 51.316 120.311 51.376L120.711 51.464C120.795 51.464 120.711 51.464 120.711 51.484C120.657 51.4967 120.605 51.5198 120.559 51.552C120.523 51.588 120.523 51.588 120.539 51.58C120.618 51.4627 120.68 51.3347 120.723 51.2C120.865 50.7384 120.952 50.2618 120.983 49.78C121.031 49.256 121.047 48.704 121.043 48.148C121.043 47.032 120.955 45.892 120.867 44.748C120.779 43.604 120.639 42.456 120.491 41.304C120.343 40.152 120.179 39 120.007 37.864L121.511 37.52C122.174 39.803 122.708 42.1213 123.111 44.464C123.321 45.6553 123.466 46.857 123.547 48.064C123.594 48.6868 123.609 49.3116 123.591 49.936C123.586 50.6252 123.498 51.3113 123.331 51.98C123.218 52.4076 123.034 52.8132 122.787 53.18C122.614 53.43 122.399 53.6479 122.151 53.824C121.867 54.0273 121.54 54.164 121.195 54.224C120.899 54.2739 120.596 54.2739 120.299 54.224L119.839 54.148C119.531 54.096 119.219 54.056 118.915 53.988C117.689 53.7444 116.485 53.3992 115.315 52.956C114.146 52.5074 113.016 51.9643 111.935 51.332C111.395 51.008 110.867 50.668 110.355 50.296C110.099 50.112 109.847 49.896 109.595 49.72C109.471 49.616 109.347 49.516 109.223 49.404C109.099 49.292 108.983 49.2 108.823 49.048L110.951 46.816Z" fill="#E4897B"/>
<path d="M106.603 44.996C111.003 44.4 114.539 47.948 114.539 47.948L110.515 54.156C110.515 54.156 106.203 51.396 105.443 49.516C104.659 47.56 104.351 45.288 106.603 44.996Z" fill="#FA1239"/>
<path opacity="0.6" d="M106.603 44.996C111.003 44.4 114.539 47.948 114.539 47.948L110.515 54.156C110.515 54.156 106.203 51.396 105.443 49.516C104.659 47.56 104.351 45.288 106.603 44.996Z" fill="#FAFAFA"/>
<path d="M120.043 38.404L118.583 35.476L122.411 35.444C122.411 35.444 122.487 37.488 121.519 38.644L120.043 38.404Z" fill="#E4897B"/>
<path d="M119.263 32.328L122.111 32.836L122.411 35.444L118.583 35.476L119.263 32.328Z" fill="#E4897B"/>
<path d="M91.0435 141.636L94.6275 141.98L97.1075 133.564L93.5235 133.216L91.0435 141.636Z" fill="#E4897B"/>
<path d="M68.2554 129.188L70.9114 131.684L76.6474 125.38L73.9914 122.884L68.2554 129.188Z" fill="#E4897B"/>
<path d="M72.1393 130.488L70.1393 126.888C70.1053 126.826 70.0502 126.779 69.984 126.755C69.9179 126.73 69.8452 126.731 69.7793 126.756L66.7033 127.924C66.6272 127.957 66.5587 128.005 66.5024 128.066C66.446 128.126 66.4031 128.198 66.3763 128.277C66.3496 128.355 66.3396 128.438 66.347 128.521C66.3544 128.604 66.379 128.684 66.4193 128.756C67.1353 129.996 67.5473 130.56 68.4193 132.14C68.9593 133.116 70.0193 135.34 70.7593 136.692C71.4993 138.044 72.8713 137.368 72.6833 136.744C71.8273 133.944 71.9913 132.372 72.2313 131.144C72.2795 130.921 72.2469 130.689 72.1393 130.488Z" fill="#263238"/>
<path d="M95.0474 140.888H90.7034C90.6257 140.889 90.5504 140.915 90.489 140.963C90.4276 141.01 90.3835 141.077 90.3634 141.152L89.4154 144.588C89.3931 144.669 89.39 144.755 89.4063 144.837C89.4227 144.92 89.458 144.998 89.5096 145.065C89.5612 145.132 89.6277 145.185 89.7036 145.222C89.7796 145.259 89.8631 145.277 89.9474 145.276C91.4794 145.276 92.2034 145.276 94.1154 145.276H99.9514C101.551 145.276 101.871 143.676 101.215 143.524C98.2714 142.876 96.5714 141.976 95.6634 141.124C95.4951 140.971 95.2751 140.886 95.0474 140.888Z" fill="#263238"/>
<path d="M97.1073 133.564L95.8273 137.904H92.1393L93.5193 133.22L97.1073 133.564Z" fill="#CE6F64"/>
<path d="M73.9872 122.888L76.6472 125.38L73.6872 128.628L71.0312 126.136L73.9872 122.888Z" fill="#CE6F64"/>
<path d="M110.939 42.512C110.911 39.604 108.279 38.588 108.279 38.588C108.279 38.588 111.571 32.356 109.879 28.22C108.187 24.084 102.611 23.356 100.843 25.288C97.7354 25.156 96.7474 29.62 96.7474 29.62C96.7474 29.62 94.1474 30.056 93.4474 31.948C92.7474 33.84 94.8794 35.972 94.8794 35.972C94.8794 35.972 91.9114 36.372 90.8194 38.656C89.7274 40.94 90.3994 43.972 93.6794 46.588C98.4474 50.388 107.211 45.62 107.211 45.62C107.211 45.62 110.971 45.856 110.939 42.512Z" fill="#263238"/>
<path d="M110.375 45.404C110.375 45.404 111.975 46.104 106.631 67.212L91.8314 65.928C92.5994 59.928 92.9314 56.2 91.1194 43.576C93.231 43.3262 95.358 43.2313 97.4834 43.292C99.7369 43.3259 101.985 43.5197 104.211 43.872C106.29 44.2794 108.348 44.7907 110.375 45.404Z" fill="#FA1239"/>
<path opacity="0.6" d="M110.375 45.404C110.375 45.404 111.975 46.104 106.631 67.212L91.8314 65.928C92.5994 59.928 92.9314 56.2 91.1194 43.576C93.231 43.3262 95.358 43.2313 97.4834 43.292C99.7369 43.3259 101.985 43.5197 104.211 43.872C106.29 44.2794 108.348 44.7907 110.375 45.404Z" fill="#FAFAFA"/>
<path d="M106.539 44.372C105.771 44.188 104.939 44.012 104.179 43.872C101.953 43.5184 99.7049 43.3232 97.4512 43.288C96.6792 43.26 95.9072 43.26 95.1832 43.288L95.6792 44.232C95.7672 44.4 97.8792 48.34 101.891 50.576L102.995 51.192L104.023 50.46C106.615 48.608 106.999 46.2 106.539 44.372Z" fill="#FAFAFA"/>
<path d="M98.7753 35.772C99.0113 37.976 99.0913 41.98 97.4553 43.292C97.4553 43.292 99.3273 46.848 102.871 48.82C106.007 46.588 104.183 43.872 104.183 43.872C101.819 43.072 102.035 41.304 102.583 39.656L98.7753 35.772Z" fill="#E4897B"/>
<path d="M100.331 37.356L102.595 39.656C102.457 40.0382 102.353 40.4316 102.283 40.832C101.375 40.62 100.055 39.672 100.039 38.696C100.057 38.2356 100.156 37.7821 100.331 37.356Z" fill="#CE6F64"/>
<path d="M98.6793 30.772C98.2433 34.372 97.9833 35.896 99.4513 38.06C101.659 41.308 106.187 41.052 107.687 37.66C109.039 34.596 109.523 29.212 106.287 27.152C105.578 26.6953 104.763 26.4273 103.921 26.3735C103.079 26.3196 102.238 26.4816 101.476 26.8441C100.714 27.2066 100.057 27.7577 99.5676 28.4451C99.0783 29.1324 98.7725 29.9334 98.6793 30.772Z" fill="#E4897B"/>
<path d="M101.471 26.336C104.251 27.056 101.503 35.512 97.0713 33.06C97.0713 33.06 97.2713 29.488 98.5033 27.972C99.2484 27.0688 100.31 26.4837 101.471 26.336Z" fill="#263238"/>
<path d="M101.175 26.804C102.375 28.756 111.275 32.456 108.283 28.256C105.291 24.056 101.175 26.804 101.175 26.804Z" fill="#263238"/>
<path d="M97.5353 33.888C97.4854 34.5893 97.7139 35.282 98.1713 35.816C98.7873 36.516 99.5993 36.092 99.8553 35.244C100.083 34.484 100.039 33.204 99.2193 32.812C99.0383 32.7322 98.8405 32.6983 98.6433 32.7135C98.4461 32.7286 98.2557 32.7922 98.089 32.8987C97.9223 33.0052 97.7846 33.1513 97.688 33.3238C97.5914 33.4964 97.5389 33.6902 97.5353 33.888Z" fill="#E4897B"/>
<path d="M106.615 67.212C106.615 67.212 111.627 89.388 108.283 105.02C106.043 115.492 97.9593 136.644 97.9593 136.644L91.6393 136.484C91.6393 136.484 97.7553 114.284 99.0233 105.556C101.187 90.62 95.7673 66.272 95.7673 66.272L106.615 67.212Z" fill="#263238"/>
<path d="M100.835 71.688L97.6753 76.672C98.6277 82.582 99.2314 88.543 99.4833 94.524C103.927 86.568 101.823 75.9 100.835 71.688Z" fill="#263238"/>
<path d="M98.4794 136.972L90.6714 136.772L91.1234 134.376L99.6474 134.78L98.4794 136.972Z" fill="#FA1239"/>
<path opacity="0.6" d="M98.4794 136.972L90.6714 136.772L91.1234 134.376L99.6474 134.78L98.4794 136.972Z" fill="#FAFAFA"/>
<path d="M103.375 66.972C103.375 66.972 100.435 90.492 94.0593 103.332C88.9113 113.688 75.1753 128.488 75.1753 128.488L71.6633 124.868C71.6633 124.868 80.9433 108.824 84.7713 101.932C94.1553 85.04 86.4833 72.152 91.8033 65.932L103.375 66.972Z" fill="#263238"/>
<path d="M75.5272 128.952L70.9912 124.532L72.4992 122.484L77.4392 127.592L75.5272 128.952Z" fill="#FA1239"/>
<path opacity="0.6" d="M75.5272 128.952L70.9912 124.532L72.4992 122.484L77.4392 127.592L75.5272 128.952Z" fill="#FAFAFA"/>
<path d="M91.6513 65.04L90.8713 66.308C90.8073 66.408 90.9233 66.524 91.0913 66.536L106.631 67.88C106.767 67.88 106.883 67.836 106.899 67.752L107.147 66.44C107.147 66.348 107.055 66.26 106.907 66.248L91.9033 64.948C91.8569 64.9402 91.8093 64.9446 91.7651 64.9607C91.721 64.9769 91.6817 65.0042 91.6513 65.04Z" fill="#FA1239"/>
<path opacity="0.3" d="M91.6513 65.04L90.8713 66.308C90.8073 66.408 90.9233 66.524 91.0913 66.536L106.631 67.88C106.767 67.88 106.883 67.836 106.899 67.752L107.147 66.44C107.147 66.348 107.055 66.26 106.907 66.248L91.9033 64.948C91.8569 64.9402 91.8093 64.9446 91.7651 64.9607C91.721 64.9769 91.6817 65.0042 91.6513 65.04Z" fill="black"/>
<path d="M93.5234 66.888L93.1234 66.852C93.0434 66.852 92.9874 66.8 92.9954 66.748L93.3354 65.044C93.3354 64.992 93.4194 64.956 93.4994 64.964L93.8994 65C93.9794 65 94.0354 65.052 94.0274 65.104L93.6914 66.808C93.6754 66.864 93.6034 66.888 93.5234 66.888Z" fill="#263238"/>
<path d="M105.491 67.928L105.091 67.892C105.011 67.892 104.955 67.84 104.963 67.788L105.303 66.08C105.303 66.032 105.387 65.996 105.467 66.004L105.867 66.04C105.947 66.04 106.003 66.092 105.995 66.14L105.659 67.848C105.643 67.9 105.575 67.932 105.491 67.928Z" fill="#263238"/>
<path d="M99.5073 67.408L99.1073 67.376C99.0273 67.376 98.9713 67.32 98.9793 67.272L99.3193 65.564C99.3193 65.516 99.4033 65.48 99.4833 65.488L99.8833 65.52C99.9633 65.52 100.019 65.576 100.011 65.624L99.6753 67.332C99.6593 67.38 99.5753 67.416 99.5073 67.408Z" fill="#263238"/>
<path d="M103.907 32.76C103.855 33.048 103.967 33.312 104.155 33.348C104.343 33.384 104.555 33.176 104.595 32.884C104.635 32.592 104.539 32.328 104.347 32.296C104.155 32.264 103.975 32.488 103.907 32.76Z" fill="#263238"/>
<path d="M107.175 33.36C107.123 33.648 107.235 33.912 107.423 33.948C107.611 33.984 107.823 33.776 107.863 33.484C107.903 33.192 107.807 32.928 107.615 32.896C107.423 32.864 107.247 33.068 107.175 33.36Z" fill="#263238"/>
<path d="M107.547 32.888L108.279 32.816C108.279 32.816 107.823 33.288 107.547 32.888Z" fill="#263238"/>
<path d="M106.231 33.688C106.371 34.3978 106.606 35.0854 106.931 35.732C106.763 35.8102 106.58 35.8508 106.395 35.8508C106.21 35.8508 106.027 35.8102 105.859 35.732L106.231 33.688Z" fill="#DE5753"/>
<path d="M104.643 36.692C104.253 36.6315 103.883 36.4782 103.564 36.2451C103.245 36.0119 102.987 35.7056 102.811 35.352C102.805 35.3344 102.805 35.315 102.813 35.2978C102.82 35.2807 102.834 35.2671 102.851 35.26C102.86 35.256 102.869 35.2538 102.878 35.2535C102.887 35.2532 102.896 35.2548 102.905 35.2582C102.914 35.2615 102.921 35.2666 102.928 35.2731C102.935 35.2796 102.94 35.2874 102.943 35.296C103.112 35.6256 103.356 35.9108 103.655 36.1284C103.955 36.3459 104.302 36.4897 104.667 36.548C104.686 36.548 104.705 36.5555 104.718 36.5691C104.732 36.5826 104.739 36.6009 104.739 36.62C104.739 36.6391 104.732 36.6574 104.718 36.6709C104.705 36.6844 104.686 36.692 104.667 36.692H104.643Z" fill="#263238"/>
<path d="M103.127 30.488C103.097 30.4886 103.067 30.4794 103.042 30.4618C103.017 30.4442 102.998 30.4191 102.988 30.3902C102.978 30.3612 102.978 30.3299 102.987 30.3007C102.996 30.2716 103.015 30.2461 103.039 30.228C103.25 30.0583 103.498 29.9417 103.764 29.8881C104.029 29.8345 104.303 29.8454 104.563 29.92C104.581 29.9263 104.598 29.936 104.612 29.9487C104.626 29.9613 104.637 29.9766 104.645 29.9937C104.654 30.0108 104.658 30.0293 104.659 30.0483C104.66 30.0672 104.658 30.0861 104.651 30.104C104.645 30.1219 104.635 30.1383 104.623 30.1524C104.61 30.1665 104.595 30.178 104.577 30.1862C104.56 30.1943 104.542 30.1991 104.523 30.2001C104.504 30.2011 104.485 30.1983 104.467 30.192C104.253 30.133 104.027 30.1262 103.809 30.1721C103.591 30.218 103.388 30.3154 103.215 30.456C103.19 30.4752 103.159 30.4863 103.127 30.488Z" fill="#263238"/>
<path d="M109.047 32.256C109.026 32.2559 109.005 32.2512 108.986 32.2422C108.966 32.2332 108.949 32.2202 108.935 32.204C108.799 32.0278 108.622 31.8863 108.421 31.7911C108.219 31.6958 107.998 31.6496 107.775 31.656C107.737 31.6594 107.699 31.648 107.669 31.6241C107.64 31.6003 107.62 31.5658 107.615 31.528C107.613 31.5093 107.615 31.4903 107.62 31.4722C107.625 31.4541 107.634 31.4373 107.646 31.4227C107.658 31.4082 107.673 31.3962 107.689 31.3874C107.706 31.3787 107.724 31.3735 107.743 31.372C108.014 31.358 108.284 31.4097 108.531 31.5225C108.777 31.6353 108.993 31.806 109.159 32.02C109.185 32.0475 109.2 32.084 109.2 32.122C109.2 32.16 109.185 32.1965 109.159 32.224C109.127 32.2483 109.087 32.2598 109.047 32.256Z" fill="#263238"/>
<path d="M92.2113 48.888C91.6097 50.0816 90.942 51.2407 90.2113 52.36C89.4913 53.464 88.7313 54.544 87.9113 55.584C87.0828 56.6277 86.1946 57.6227 85.2513 58.564C84.7633 59.024 84.2873 59.492 83.7633 59.924L83.3633 60.252L83.2673 60.332L83.1393 60.432C83.055 60.5008 82.9668 60.5649 82.8753 60.624C82.5117 60.8731 82.1161 61.0723 81.6993 61.216C80.9144 61.472 80.0851 61.5632 79.2633 61.484C78.5272 61.4103 77.8022 61.2506 77.1033 61.008C75.8086 60.5563 74.5741 59.9477 73.4273 59.196C71.2208 57.7647 69.1885 56.0813 67.3713 54.18L68.4353 53.064C69.3913 53.832 70.3993 54.596 71.4313 55.288C72.4422 55.996 73.4947 56.6425 74.5833 57.224C75.6198 57.7933 76.714 58.2506 77.8473 58.588C78.9273 58.888 80.0113 58.94 80.7593 58.628C81.182 58.4442 81.5599 58.1713 81.8673 57.828C82.3113 57.428 82.7233 56.984 83.1433 56.552C83.9633 55.66 84.7233 54.704 85.4713 53.752C86.2193 52.8 86.8953 51.752 87.5513 50.712C87.8833 50.192 88.1993 49.664 88.5113 49.136C88.8233 48.608 89.1233 48.052 89.3833 47.556L92.2113 48.888Z" fill="#E4897B"/>
<path d="M69.4473 53.54L68.0233 50.596L65.6553 53.604C65.6553 53.604 67.2233 54.912 68.7473 54.864L69.4473 53.54Z" fill="#E4897B"/>
<path d="M66.4674 49.736L65.1274 52.3L65.6554 53.604L68.0234 50.596L66.4674 49.736Z" fill="#E4897B"/>
<path d="M91.0873 43.576C89.2713 43.896 86.7233 49.108 86.7233 49.108L91.7113 53.616C91.7113 53.616 94.9433 49.276 94.7513 46.908C94.5873 44.888 93.3993 43.168 91.0873 43.576Z" fill="#FA1239"/>
<path opacity="0.6" d="M91.0873 43.576C89.2713 43.896 86.7233 49.108 86.7233 49.108L91.7113 53.616C91.7113 53.616 94.9433 49.276 94.7513 46.908C94.5873 44.888 93.3993 43.168 91.0873 43.576Z" fill="#FAFAFA"/>
<path d="M72.8394 132.42C72.7917 132.42 72.7443 132.412 72.6994 132.396C72.2634 132.252 71.9794 131.448 71.8474 130.98C71.8435 130.966 71.8437 130.952 71.8479 130.938C71.8522 130.925 71.8604 130.913 71.8714 130.904C71.8836 130.897 71.8974 130.893 71.9114 130.893C71.9255 130.893 71.9393 130.897 71.9514 130.904C72.0834 130.972 73.2434 131.596 73.2794 132.052C73.2849 132.102 73.2761 132.153 73.2542 132.198C73.2323 132.243 73.198 132.281 73.1554 132.308C73.0653 132.379 72.9542 132.419 72.8394 132.42ZM72.0394 131.108C72.2394 131.752 72.4994 132.176 72.7474 132.26C72.804 132.277 72.864 132.279 72.9215 132.265C72.979 132.252 73.0321 132.224 73.0754 132.184C73.0973 132.171 73.1149 132.152 73.1263 132.129C73.1376 132.107 73.1422 132.081 73.1394 132.056C73.1154 131.776 72.4354 131.332 72.0354 131.108H72.0394Z" fill="#FA1239"/>
<path d="M73.0193 131.288C72.6239 131.286 72.234 131.195 71.8793 131.02C71.8681 131.015 71.8588 131.006 71.8524 130.995C71.846 130.985 71.8428 130.972 71.8433 130.96C71.8434 130.947 71.8472 130.934 71.8543 130.922C71.8613 130.911 71.8714 130.902 71.8833 130.896C71.9193 130.896 72.8393 130.372 73.3353 130.548C73.3963 130.568 73.4521 130.601 73.4985 130.645C73.5448 130.69 73.5807 130.744 73.6033 130.804C73.6349 130.862 73.6458 130.928 73.6342 130.993C73.6225 131.058 73.589 131.117 73.5393 131.16C73.3846 131.258 73.202 131.303 73.0193 131.288ZM72.0753 130.96C72.4753 131.128 73.2313 131.232 73.4473 131.048C73.4833 131.02 73.5153 130.968 73.4713 130.856C73.4554 130.815 73.4306 130.779 73.3988 130.749C73.367 130.719 73.3289 130.697 73.2873 130.684C72.9473 130.564 72.3353 130.832 72.0753 130.96Z" fill="#FA1239"/>
<path d="M96.9753 141.592C96.5712 141.583 96.169 141.532 95.7753 141.44C95.7604 141.437 95.7469 141.429 95.7369 141.417C95.7268 141.406 95.7207 141.391 95.7193 141.376C95.7172 141.361 95.72 141.346 95.7272 141.333C95.7344 141.32 95.7457 141.31 95.7593 141.304C95.9393 141.22 97.5113 140.504 97.9113 140.76C97.947 140.785 97.9755 140.818 97.9938 140.858C98.012 140.897 98.0195 140.941 98.0153 140.984C98.0106 141.062 97.9888 141.139 97.9515 141.208C97.9142 141.277 97.8622 141.337 97.7993 141.384C97.5518 141.535 97.2647 141.607 96.9753 141.592ZM96.0393 141.344C96.5073 141.432 97.3713 141.544 97.7273 141.276C97.7744 141.241 97.8131 141.196 97.8408 141.144C97.8684 141.092 97.8843 141.035 97.8873 140.976C97.8897 140.958 97.8872 140.939 97.8802 140.923C97.8732 140.906 97.8618 140.891 97.8473 140.88C97.6233 140.728 96.6913 141.056 96.0393 141.344Z" fill="#FA1239"/>
<path d="M95.8074 141.44C95.792 141.446 95.7748 141.446 95.7594 141.44C95.7495 141.431 95.742 141.42 95.7378 141.407C95.7336 141.395 95.7328 141.381 95.7354 141.368C95.7354 141.304 96.1114 139.748 96.9634 139.848C97.1794 139.872 97.2354 139.98 97.2474 140.064C97.3034 140.464 96.3074 141.264 95.8354 141.452L95.8074 141.44ZM96.8874 139.972C96.3394 139.972 96.0234 140.876 95.9154 141.24C96.4314 140.968 97.1394 140.32 97.1154 140.068C97.1154 140.048 97.1154 139.992 96.9594 139.976L96.8874 139.972Z" fill="#FA1239"/>
<path d="M104.263 32.296L104.995 32.22C104.995 32.22 104.539 32.7 104.263 32.296Z" fill="#263238"/>
<path opacity="0.6" d="M74.1713 9.49994L62.4473 85.2879L128.415 95.4799L140.139 19.6879L74.1713 9.49994ZM101.275 52.6079C98.2473 52.1393 95.4265 50.7831 93.1695 48.7109C90.9125 46.6388 89.3209 43.9437 88.5959 40.9667C87.8709 37.9898 88.0453 34.8647 89.0968 31.9868C90.1483 29.1089 92.0298 26.6076 94.5033 24.7993C96.9767 22.9909 99.9309 21.9569 102.992 21.8279C106.053 21.6989 109.084 22.4808 111.701 24.0747C114.318 25.6685 116.403 28.0027 117.693 30.782C118.983 33.5612 119.419 36.6605 118.947 39.6879C118.315 43.7437 116.099 47.3825 112.785 49.8051C109.471 52.2276 105.332 53.2357 101.275 52.6079Z" fill="#FA1239"/>
<g style="mix-blend-mode:multiply" opacity="0.3">
<path d="M126.423 92.604H126.323L60.2551 82.368V82.268L72.0111 6.39197H72.1071L138.175 16.628V16.728L126.423 92.604ZM60.4831 82.204L126.255 92.376L137.947 16.776L72.1751 6.61997L60.4831 82.204Z" fill="#FA1239"/>
</g>
<path d="M103.651 53.392C102.825 53.3911 102 53.3269 101.183 53.2C97.0798 52.5598 93.3837 50.3551 90.8705 47.0486C88.3573 43.7421 87.2224 39.5907 87.704 35.4655C88.1855 31.3403 90.246 27.5619 93.4532 24.9231C96.6603 22.2843 100.765 20.9902 104.906 21.3124C109.046 21.6345 112.901 23.5478 115.662 26.6509C118.422 29.7539 119.874 33.8055 119.711 37.9555C119.549 42.1056 117.786 46.0315 114.792 48.9095C111.797 51.7876 107.805 53.3941 103.651 53.392ZM101.367 52.016C104.276 52.4654 107.253 52.0422 109.922 50.7999C112.59 49.5575 114.831 47.5519 116.359 45.0364C117.888 42.521 118.637 39.6088 118.51 36.668C118.384 33.7272 117.389 30.8898 115.65 28.5147C113.911 26.1396 111.507 24.3333 108.742 23.3243C105.977 22.3153 102.975 22.1488 100.115 22.846C97.2551 23.5431 94.6662 25.0725 92.6756 27.2409C90.685 29.4092 89.382 32.1192 88.9314 35.028C88.3324 38.9292 89.3053 42.9087 91.6367 46.0934C93.9681 49.2782 97.4676 51.4081 101.367 52.016Z" fill="#FAFAFA"/>
<path d="M88.5328 57.2968L74.0015 55.0499L73.4966 58.3151L88.0279 60.562L88.5328 57.2968Z" fill="#FA1239"/>
<path opacity="0.6" d="M88.5328 57.2968L74.0015 55.0499L73.4966 58.3151L88.0279 60.562L88.5328 57.2968Z" fill="#FAFAFA"/>
<path d="M100.278 59.1136L90.4468 57.5934L89.9419 60.8586L99.773 62.3788L100.278 59.1136Z" fill="#FA1239"/>
<path opacity="0.6" d="M100.278 59.1136L90.4468 57.5934L89.9419 60.8586L99.773 62.3788L100.278 59.1136Z" fill="#FAFAFA"/>
<path d="M125.523 69.7917L72.9758 61.6663L72.4709 64.9315L125.018 73.0569L125.523 69.7917Z" fill="#FAFAFA"/>
<path d="M98.4606 72.5355L72.285 68.5695L71.7894 71.8404L97.965 75.8064L98.4606 72.5355Z" fill="#FAFAFA"/>
<path d="M119.985 76.0441L102.505 73.3411L102 76.6063L119.48 79.3093L119.985 76.0441Z" fill="#FAFAFA"/>
<path d="M112.839 82.0501L70.8307 75.5543L70.3258 78.8195L112.335 85.3153L112.839 82.0501Z" fill="#FAFAFA"/>
<path d="M140.843 95.48H140.443C140.445 94.4873 140.322 93.4983 140.079 92.5359L140.479 92.44C140.727 93.4342 140.849 94.4554 140.843 95.48ZM139.275 90.312C138.395 88.47 137.065 86.8797 135.407 85.688L135.639 85.364C137.351 86.5931 138.726 88.2326 139.639 90.1319L139.275 90.312Z" fill="#FA1239"/>
<path opacity="0.6" d="M140.843 95.48H140.443C140.445 94.4873 140.322 93.4983 140.079 92.5359L140.479 92.44C140.727 93.4342 140.849 94.4554 140.843 95.48ZM139.275 90.312C138.395 88.47 137.065 86.8797 135.407 85.688L135.639 85.364C137.351 86.5931 138.726 88.2326 139.639 90.1319L139.275 90.312Z" fill="#FAFAFA"/>
<path d="M128.415 84.452C126.234 84.452 124.102 85.0988 122.289 86.3105C120.475 87.5223 119.062 89.2446 118.227 91.2597C117.392 93.2748 117.174 95.4922 117.599 97.6314C118.025 99.7706 119.075 101.736 120.617 103.278C122.16 104.82 124.125 105.871 126.264 106.296C128.403 106.722 130.621 106.503 132.636 105.669C134.651 104.834 136.373 103.42 137.585 101.607C138.797 99.7932 139.443 97.6611 139.443 95.48C139.443 92.5552 138.282 89.7501 136.213 87.682C134.145 85.6138 131.34 84.452 128.415 84.452ZM128.415 105.08C126.517 105.08 124.661 104.517 123.082 103.462C121.503 102.407 120.273 100.908 119.546 99.1537C118.82 97.3996 118.63 95.4693 119 93.6071C119.37 91.7449 120.285 90.0343 121.627 88.6917C122.97 87.3492 124.68 86.4348 126.543 86.0644C128.405 85.694 130.335 85.8841 132.089 86.6107C133.843 87.3373 135.343 88.5678 136.398 90.1465C137.452 91.7252 138.015 93.5813 138.015 95.48C138.015 98.026 137.004 100.468 135.204 102.268C133.403 104.069 130.962 105.08 128.415 105.08Z" fill="#FA1239"/>
<path opacity="0.6" d="M128.415 84.452C126.234 84.452 124.102 85.0988 122.289 86.3105C120.475 87.5223 119.062 89.2446 118.227 91.2597C117.392 93.2748 117.174 95.4922 117.599 97.6314C118.025 99.7706 119.075 101.736 120.617 103.278C122.16 104.82 124.125 105.871 126.264 106.296C128.403 106.722 130.621 106.503 132.636 105.669C134.651 104.834 136.373 103.42 137.585 101.607C138.797 99.7932 139.443 97.6611 139.443 95.48C139.443 92.5552 138.282 89.7501 136.213 87.682C134.145 85.6138 131.34 84.452 128.415 84.452ZM128.415 105.08C126.517 105.08 124.661 104.517 123.082 103.462C121.503 102.407 120.273 100.908 119.546 99.1537C118.82 97.3996 118.63 95.4693 119 93.6071C119.37 91.7449 120.285 90.0343 121.627 88.6917C122.97 87.3492 124.68 86.4348 126.543 86.0644C128.405 85.694 130.335 85.8841 132.089 86.6107C133.843 87.3373 135.343 88.5678 136.398 90.1465C137.452 91.7252 138.015 93.5813 138.015 95.48C138.015 98.026 137.004 100.468 135.204 102.268C133.403 104.069 130.962 105.08 128.415 105.08Z" fill="#FAFAFA"/>
<path d="M128.415 105.076C133.715 105.076 138.011 100.78 138.011 95.48C138.011 90.1803 133.715 85.884 128.415 85.884C123.116 85.884 118.819 90.1803 118.819 95.48C118.819 100.78 123.116 105.076 128.415 105.076Z" fill="#FA1239"/>
<path opacity="0.2" d="M128.415 105.076C133.715 105.076 138.011 100.78 138.011 95.48C138.011 90.1803 133.715 85.884 128.415 85.884C123.116 85.884 118.819 90.1803 118.819 95.48C118.819 100.78 123.116 105.076 128.415 105.076Z" fill="black"/>
<path d="M126.923 101.552L121.291 95.92L122.707 94.508L126.923 98.724L134.127 91.52L135.539 92.936L126.923 101.552Z" fill="#FAFAFA"/>
</svg>