<svg width="102" height="17" viewBox="0 0 102 17" fill="none" xmlns="http://www.w3.org/2000/svg">
<path d="M8.56088 14.0234L4.41088 16.5234C4.22754 16.64 4.03588 16.69 3.83588 16.6734C3.63588 16.6567 3.46088 16.59 3.31088 16.4734C3.16088 16.3567 3.04421 16.211 2.96088 16.0364C2.87754 15.8617 2.86088 15.6657 2.91088 15.4484L4.01088 10.7234L0.335876 7.54836C0.169209 7.39836 0.0652091 7.22736 0.0238758 7.03536C-0.0174575 6.84336 -0.00512426 6.65603 0.0608757 6.47336C0.126876 6.2907 0.226876 6.1407 0.360876 6.02336C0.494876 5.90603 0.678209 5.83103 0.910876 5.79836L5.76088 5.37336L7.63588 0.923364C7.71921 0.723364 7.84854 0.573364 8.02388 0.473364C8.19921 0.373364 8.37821 0.323364 8.56088 0.323364C8.74354 0.323364 8.92254 0.373364 9.09788 0.473364C9.27321 0.573364 9.40254 0.723364 9.48588 0.923364L11.3609 5.37336L16.2109 5.79836C16.4442 5.8317 16.6275 5.9067 16.7609 6.02336C16.8942 6.14003 16.9942 6.29003 17.0609 6.47336C17.1275 6.6567 17.1402 6.84436 17.0989 7.03636C17.0575 7.22836 16.9532 7.39903 16.7859 7.54836L13.1109 10.7234L14.2109 15.4484C14.2609 15.665 14.2442 15.861 14.1609 16.0364C14.0775 16.2117 13.9609 16.3574 13.8109 16.4734C13.6609 16.5894 13.4859 16.656 13.2859 16.6734C13.0859 16.6907 12.8942 16.6407 12.7109 16.5234L8.56088 14.0234Z" fill="#FFAB00"/>
<path d="M29.6834 14.0234L25.5334 16.5234C25.3501 16.64 25.1584 16.69 24.9584 16.6734C24.7584 16.6567 24.5834 16.59 24.4334 16.4734C24.2834 16.3567 24.1668 16.211 24.0834 16.0364C24.0001 15.8617 23.9834 15.6657 24.0334 15.4484L25.1334 10.7234L21.4584 7.54836C21.2918 7.39836 21.1878 7.22736 21.1464 7.03536C21.1051 6.84336 21.1174 6.65603 21.1834 6.47336C21.2494 6.2907 21.3494 6.1407 21.4834 6.02336C21.6174 5.90603 21.8008 5.83103 22.0334 5.79836L26.8834 5.37336L28.7584 0.923364C28.8418 0.723364 28.9711 0.573364 29.1464 0.473364C29.3218 0.373364 29.5008 0.323364 29.6834 0.323364C29.8661 0.323364 30.0451 0.373364 30.2204 0.473364C30.3958 0.573364 30.5251 0.723364 30.6084 0.923364L32.4834 5.37336L37.3334 5.79836C37.5668 5.8317 37.7501 5.9067 37.8834 6.02336C38.0168 6.14003 38.1168 6.29003 38.1834 6.47336C38.2501 6.6567 38.2628 6.84436 38.2214 7.03636C38.1801 7.22836 38.0758 7.39903 37.9084 7.54836L34.2334 10.7234L35.3334 15.4484C35.3834 15.665 35.3668 15.861 35.2834 16.0364C35.2001 16.2117 35.0834 16.3574 34.9334 16.4734C34.7834 16.5894 34.6084 16.656 34.4084 16.6734C34.2084 16.6907 34.0168 16.6407 33.8334 16.5234L29.6834 14.0234Z" fill="#FFAB00"/>
<path d="M50.806 14.0234L46.656 16.5234C46.4727 16.64 46.281 16.69 46.081 16.6734C45.881 16.6567 45.706 16.59 45.556 16.4734C45.406 16.3567 45.2893 16.211 45.206 16.0364C45.1227 15.8617 45.106 15.6657 45.156 15.4484L46.256 10.7234L42.581 7.54836C42.4143 7.39836 42.3103 7.22736 42.269 7.03536C42.2277 6.84336 42.24 6.65603 42.306 6.47336C42.372 6.2907 42.472 6.1407 42.606 6.02336C42.74 5.90603 42.9233 5.83103 43.156 5.79836L48.006 5.37336L49.881 0.923364C49.9643 0.723364 50.0937 0.573364 50.269 0.473364C50.4443 0.373364 50.6233 0.323364 50.806 0.323364C50.9887 0.323364 51.1677 0.373364 51.343 0.473364C51.5183 0.573364 51.6477 0.723364 51.731 0.923364L53.606 5.37336L58.456 5.79836C58.6893 5.8317 58.8727 5.9067 59.006 6.02336C59.1393 6.14003 59.2393 6.29003 59.306 6.47336C59.3727 6.6567 59.3853 6.84436 59.344 7.03636C59.3027 7.22836 59.1983 7.39903 59.031 7.54836L55.356 10.7234L56.456 15.4484C56.506 15.665 56.4893 15.861 56.406 16.0364C56.3227 16.2117 56.206 16.3574 56.056 16.4734C55.906 16.5894 55.731 16.656 55.531 16.6734C55.331 16.6907 55.1393 16.6407 54.956 16.5234L50.806 14.0234Z" fill="#FFAB00"/>
<path d="M71.9288 14.0234L67.7788 16.5234C67.5955 16.64 67.4038 16.69 67.2038 16.6734C67.0038 16.6567 66.8288 16.59 66.6788 16.4734C66.5288 16.3567 66.4121 16.211 66.3288 16.0364C66.2455 15.8617 66.2288 15.6657 66.2788 15.4484L67.3788 10.7234L63.7038 7.54836C63.5371 7.39836 63.4331 7.22736 63.3918 7.03536C63.3505 6.84336 63.3628 6.65603 63.4288 6.47336C63.4948 6.2907 63.5948 6.1407 63.7288 6.02336C63.8628 5.90603 64.0461 5.83103 64.2788 5.79836L69.1288 5.37336L71.0038 0.923364C71.0871 0.723364 71.2165 0.573364 71.3918 0.473364C71.5671 0.373364 71.7461 0.323364 71.9288 0.323364C72.1115 0.323364 72.2905 0.373364 72.4658 0.473364C72.6411 0.573364 72.7705 0.723364 72.8538 0.923364L74.7288 5.37336L79.5788 5.79836C79.8121 5.8317 79.9955 5.9067 80.1288 6.02336C80.2621 6.14003 80.3621 6.29003 80.4288 6.47336C80.4955 6.6567 80.5081 6.84436 80.4668 7.03636C80.4255 7.22836 80.3211 7.39903 80.1538 7.54836L76.4788 10.7234L77.5788 15.4484C77.6288 15.665 77.6121 15.861 77.5288 16.0364C77.4455 16.2117 77.3288 16.3574 77.1788 16.4734C77.0288 16.5894 76.8538 16.656 76.6538 16.6734C76.4538 16.6907 76.2621 16.6407 76.0788 16.5234L71.9288 14.0234Z" fill="#FFAB00"/>
<path d="M93.0514 14.0234L88.9014 16.5234C88.718 16.64 88.5264 16.69 88.3264 16.6734C88.1264 16.6567 87.9514 16.59 87.8014 16.4734C87.6514 16.3567 87.5347 16.211 87.4514 16.0364C87.368 15.8617 87.3514 15.6657 87.4014 15.4484L88.5014 10.7234L84.8264 7.54836C84.6597 7.39836 84.5557 7.22736 84.5144 7.03536C84.473 6.84336 84.4854 6.65603 84.5514 6.47336C84.6174 6.2907 84.7174 6.1407 84.8514 6.02336C84.9854 5.90603 85.1687 5.83103 85.4014 5.79836L90.2514 5.37336L92.1264 0.923364C92.2097 0.723364 92.339 0.573364 92.5144 0.473364C92.6897 0.373364 92.8687 0.323364 93.0514 0.323364C93.234 0.323364 93.413 0.373364 93.5884 0.473364C93.7637 0.573364 93.893 0.723364 93.9764 0.923364L95.8514 5.37336L100.701 5.79836C100.935 5.8317 101.118 5.9067 101.251 6.02336C101.385 6.14003 101.485 6.29003 101.551 6.47336C101.618 6.6567 101.631 6.84436 101.589 7.03636C101.548 7.22836 101.444 7.39903 101.276 7.54836L97.6014 10.7234L98.7014 15.4484C98.7514 15.665 98.7347 15.861 98.6514 16.0364C98.568 16.2117 98.4514 16.3574 98.3014 16.4734C98.1514 16.5894 97.9764 16.656 97.7764 16.6734C97.5764 16.6907 97.3847 16.6407 97.2014 16.5234L93.0514 14.0234Z" fill="#FFAB00"/>
</svg>
